<?xml version="1.0" encoding="utf-8"?>
<!-- Generator: Adobe Illustrator 21.1.0, SVG Export Plug-In . SVG Version: 6.00 Build 0)  -->
<svg version="1.1" id="Layer_1" xmlns="http://www.w3.org/2000/svg" xmlns:xlink="http://www.w3.org/1999/xlink" x="0px" y="0px"
	 viewBox="0 0 2512.5 974.8" enable-background="new 0 0 2512.5 974.8" xml:space="preserve">
<g>
	<path fill="#404041" d="M847.8,266.8H860l79.6,172.1h-13.9l-21.7-47.9H803.1l-21.7,47.9h-13.2L847.8,266.8z M898.6,379.6
		l-44.9-98.9l-45.2,98.9H898.6z"/>
	<path fill="#404041" d="M1013.6,441.6c-10.3,0-19.6-1.6-28.2-4.8c-8.5-3.2-16-7.9-22.2-14.2c-6.3-6.3-11.1-14-14.5-23.2
		c-3.4-9.2-5.1-19.7-5.1-31.6V268h12.7v98.6c0,20.4,5.1,36,15.3,47c10.2,11,24.4,16.5,42.6,16.5c17.4,0,31.2-5.2,41.5-15.6
		c10.3-10.4,15.4-26,15.4-46.6V268h12.7v98.4c0,12.2-1.7,23-5.1,32.4c-3.4,9.4-8.2,17.2-14.4,23.6c-6.2,6.3-13.5,11.1-22.1,14.4
		C1033.5,440,1024,441.6,1013.6,441.6z"/>
	<path fill="#404041" d="M1158.4,279.5h-59.6V268h131.8v11.5h-59.6v159.4h-12.7V279.5z"/>
	<path fill="#404041" d="M1320.7,441.9c-12.9,0-24.6-2.4-35.2-7.2c-10.6-4.8-19.6-11.2-27.1-19.3c-7.5-8.1-13.3-17.4-17.3-28
		c-4.1-10.6-6.1-21.7-6.1-33.4v-0.5c0-11.7,2.1-22.9,6.2-33.6c4.2-10.7,10-20.1,17.5-28.2c7.5-8.1,16.6-14.6,27.2-19.4
		c10.7-4.8,22.4-7.2,35.3-7.2c13,0,24.8,2.4,35.3,7.2c10.5,4.8,19.5,11.2,27,19.3c7.5,8.1,13.3,17.4,17.3,28
		c4.1,10.6,6.1,21.7,6.1,33.4c0.2,0.2,0.2,0.3,0,0.5c0,11.7-2.1,22.9-6.2,33.6c-4.2,10.7-10,20.1-17.5,28.2
		c-7.5,8.1-16.5,14.6-27.1,19.4C1345.5,439.5,1333.7,441.9,1320.7,441.9z M1321.2,430.4c10.6,0,20.3-2,29.2-6
		c8.9-4,16.5-9.4,23-16.4c6.4-6.9,11.4-15,15-24.3c3.6-9.3,5.4-19.2,5.4-29.8v-0.5c0-10.6-1.8-20.6-5.5-29.9
		c-3.7-9.4-8.7-17.5-15.1-24.4c-6.4-6.9-14.1-12.4-23.1-16.5c-9-4.1-18.7-6.1-29.3-6.1c-10.6,0-20.3,2-29.2,6
		c-8.9,4-16.5,9.4-22.9,16.4c-6.4,6.9-11.4,15-15,24.3c-3.6,9.3-5.4,19.2-5.4,29.8v0.5c0,10.6,1.8,20.5,5.5,29.9
		c3.7,9.4,8.7,17.5,15.1,24.4c6.4,6.9,14.1,12.4,23.1,16.5C1300.8,428.4,1310.6,430.4,1321.2,430.4z"/>
	<path fill="#404041" d="M1429.3,268h12l68.6,101.1l68.6-101.1h12v170.9h-12.7V290.5l-67.8,98.4h-1l-67.8-98.4v148.4h-12V268z"/>
	<path fill="#404041" d="M1695.2,266.8h12.2l79.6,172.1h-13.9l-21.7-47.9h-100.8l-21.7,47.9h-13.2L1695.2,266.8z M1746,379.6
		l-44.9-98.9l-45.2,98.9H1746z"/>
	<path fill="#404041" d="M1828.8,279.5h-59.6V268H1901v11.5h-59.6v159.4h-12.7V279.5z"/>
	<path fill="#404041" d="M1925.5,268h12.7v170.9h-12.7V268z"/>
	<path fill="#404041" d="M2056.8,441.9c-12.9,0-24.6-2.4-35.2-7.2c-10.6-4.8-19.6-11.2-27.1-19.3c-7.5-8.1-13.3-17.4-17.3-28
		c-4.1-10.6-6.1-21.7-6.1-33.4v-0.5c0-11.7,2.1-22.9,6.2-33.6c4.2-10.7,10-20.1,17.5-28.2c7.5-8.1,16.6-14.6,27.2-19.4
		c10.7-4.8,22.4-7.2,35.3-7.2c13,0,24.8,2.4,35.3,7.2c10.5,4.8,19.5,11.2,27,19.3c7.5,8.1,13.3,17.4,17.3,28
		c4.1,10.6,6.1,21.7,6.1,33.4c0.2,0.2,0.2,0.3,0,0.5c0,11.7-2.1,22.9-6.2,33.6c-4.2,10.7-10,20.1-17.5,28.2
		c-7.5,8.1-16.5,14.6-27.1,19.4C2081.6,439.5,2069.8,441.9,2056.8,441.9z M2057.3,430.4c10.6,0,20.3-2,29.2-6
		c8.9-4,16.5-9.4,22.9-16.4c6.4-6.9,11.4-15,15-24.3c3.6-9.3,5.4-19.2,5.4-29.8v-0.5c0-10.6-1.8-20.6-5.5-29.9
		c-3.7-9.4-8.7-17.5-15.1-24.4c-6.4-6.9-14.1-12.4-23.1-16.5c-9-4.1-18.7-6.1-29.3-6.1c-10.6,0-20.3,2-29.2,6
		c-8.9,4-16.5,9.4-23,16.4c-6.4,6.9-11.4,15-15,24.3c-3.6,9.3-5.4,19.2-5.4,29.8v0.5c0,10.6,1.8,20.5,5.5,29.9
		c3.7,9.4,8.7,17.5,15.1,24.4c6.4,6.9,14.1,12.4,23.1,16.5C2036.9,428.4,2046.7,430.4,2057.3,430.4z"/>
	<path fill="#404041" d="M2166.9,268h12l118.1,148.7V268h12v170.9h-9.5l-120.6-151.9v151.9h-12V268z"/>
	<path fill="#404041" d="M920.5,476H956l75.1,176.5h-40.3l-16-39.3h-74.1l-16,39.3h-39.3L920.5,476z M961,579.4l-23.3-56.8
		l-23.3,56.8H961z"/>
	<path fill="#404041" d="M1041.9,477.3h35.6l82.1,107.9V477.3h38.1v175.3h-32.8L1080,541.1v111.4h-38.1V477.3z"/>
	<path fill="#404041" d="M1277.8,583.4l-67.4-106.2h45.1l41.8,70.3l42.6-70.3h43.8l-67.4,105.4v69.9h-38.6V583.4z"/>
	<path fill="#404041" d="M1382.9,477.3h41.3l36.3,118.7l39.3-119.2h33l39.3,119.2l36.3-118.7h40.3L1589,653.8h-33.5l-39.6-114.7
		l-39.6,114.7h-33.5L1382.9,477.3z"/>
	<path fill="#404041" d="M1671.1,477.3h38.6v69.4h71.1v-69.4h38.6v175.3h-38.6v-70.4h-71.1v70.4h-38.6V477.3z"/>
	<path fill="#404041" d="M1850.1,477.3h132v34.3h-93.9v35.6h82.6v34.3h-82.6v36.8h95.1v34.3h-133.2V477.3z"/>
	<path fill="#404041" d="M2011.6,477.3h80.1c22.2,0,39.2,5.9,51.1,17.8c10,10,15,23.4,15,40.1v0.5c0,14.2-3.5,25.7-10.4,34.7
		c-6.9,8.9-16,15.5-27.2,19.7l42.8,62.6H2118l-37.6-56.1h-0.5h-29.8v56.1h-38.6V477.3z M2089.2,562.6c9.5,0,16.8-2.3,21.9-6.8
		c5.1-4.5,7.6-10.6,7.6-18.1v-0.5c0-8.4-2.7-14.7-8-18.9s-12.8-6.3-22.3-6.3h-38.3v50.6H2089.2z"/>
	<path fill="#404041" d="M2181.3,477.3h132v34.3h-93.9v35.6h82.6v34.3h-82.6v36.8h95.1v34.3h-133.2V477.3z"/>
</g>
<g>
	<g>
		<path fill="#A9A9A9" d="M2383.3,208.8c19.4,0,34.8,15.8,34.8,35.5s-15.5,35.5-34.8,35.5c-19.2,0-34.5-15.8-34.5-35.5
			S2364.1,208.8,2383.3,208.8z M2383.3,273.3c15.7,0,27.7-12.6,27.7-28.9s-12.1-28.9-27.7-28.9c-15.5,0-27.4,12.6-27.4,28.9
			S2367.8,273.3,2383.3,273.3z M2371.4,225.9h14.1c6.9,0,11.6,4.4,11.6,11.2c0,5.6-3.7,9-6.7,9.7v0.2c0,0,0.4,0.4,1.3,2l7,13.5h-7.6
			l-6.8-14.2h-5.9v14.2h-6.9V225.9z M2384.1,243.3c3.6,0,5.9-2.3,5.9-6.2c0-3.8-2.3-5.9-5.9-5.9h-5.8v12.2H2384.1z"/>
	</g>
</g>
<g>
	<path fill="#404041" d="M1517.9,710.1c21.2,0,31.9,11,31.9,11l-9.7,15.2c0,0-8.5-7.7-20.2-7.7c-17.4,0-24.5,11.1-24.5,23.4
		c0,15.8,10.9,25.2,23.8,25.2c9.7,0,16.8-6,16.8-6v-6.4h-11.7v-17.3h29.7v46.9H1537v-2.3c0-1.7,0.1-3.5,0.1-3.5h-0.2
		c0,0-8,7.2-21.8,7.2c-21.2,0-40.7-15.9-40.7-43.1C1474.4,728.7,1492.6,710.1,1517.9,710.1z"/>
	<path fill="#404041" d="M1595.7,733.3c18.9,0,34,12.7,34,31.5c0,18.7-15.1,31.1-33.9,31.1s-33.9-12.4-33.9-31.1
		C1562,746,1577.1,733.3,1595.7,733.3z M1595.9,779.2c7.3,0,13.6-5.5,13.6-14.4c0-9.1-6.3-14.7-13.6-14.7s-13.6,5.7-13.6,14.7
		C1582.3,773.7,1588.5,779.2,1595.9,779.2z"/>
	<path fill="#404041" d="M1666.8,711.5h20.1v23.1c0,3-0.2,5.1-0.2,5.1h0.2c0,0,5.6-6.4,16.1-6.4c16.2,0,26.9,12.8,26.9,31.3
		c0,18.9-12,31.2-27.9,31.2c-11,0-16.4-6.7-16.4-6.7h-0.2c0,0,0.1,1.5,0.1,3.4v2h-18.8V711.5z M1698,779.3c6.3,0,11.7-5.1,11.7-14.3
		c0-8.9-4.8-14.7-11.7-14.7c-6,0-11.7,4.4-11.7,14.7C1686.3,772.2,1690.1,779.3,1698,779.3z"/>
	<path fill="#404041" d="M1767.5,733.3c17.6,0,27.6,12.3,27.6,28.9c0,2-0.5,6.3-0.5,6.3h-37.7c1.5,7.3,7.5,10.7,13.9,10.7
		c8.6,0,16.5-6,16.5-6l7.4,14c0,0-9.6,8.7-25.5,8.7c-21.4,0-32.8-15.4-32.8-31.3C1736.4,747,1748.2,733.3,1767.5,733.3z M1774.9,757
		c0-4.5-3.1-8.6-7.9-8.6c-5.8,0-8.6,4.2-9.6,8.6H1774.9z"/>
	<path fill="#404041" d="M1856.9,802.1c7.2,0,13.8-2.7,13.8-11.5v-2c0-0.7,0.1-2.2,0.1-2.2h-0.2c-3.5,4.2-8,6.3-15,6.3
		c-18,0-26.9-14.7-26.9-30.1c0-15.2,8.7-29.4,26.8-29.4c10.9,0,16.2,5.8,16.2,5.8h0.3c0,0-0.1-0.7-0.1-1.4v-3h18.8V789
		c0,21.8-17.4,29.8-33.8,29.8c-8,0-16.8-2.3-22.6-5.3l5.7-15.2C1840,798.3,1847.5,802.1,1856.9,802.1z M1871.1,762.9
		c0-10.6-5.6-12.9-11.6-12.9c-7.1,0-10.7,5.1-10.7,12c0,7.4,3.5,14,11.5,14C1865.6,776,1871.1,773.4,1871.1,762.9z"/>
	<path fill="#404041" d="M1902.4,734.7h19.3v10.1c0,2-0.2,3.7-0.2,3.7h0.2c2.6-8.1,10.1-14.9,19-14.9c1.2,0,2.3,0.2,2.3,0.2v19.7
		c0,0-1.6-0.3-4.1-0.3c-4.8,0-12.5,1.5-15.4,10.4c-0.7,2.2-1,4.9-1,8.1v22.6h-20.1V734.7z"/>
	<path fill="#404041" d="M1979.1,733.3c17.6,0,27.6,12.3,27.6,28.9c0,2-0.5,6.3-0.5,6.3h-37.7c1.5,7.3,7.5,10.7,13.9,10.7
		c8.6,0,16.5-6,16.5-6l7.4,14c0,0-9.6,8.7-25.5,8.7c-21.4,0-32.8-15.4-32.8-31.3C1948,747,1959.9,733.3,1979.1,733.3z M1986.6,757
		c0-4.5-3.1-8.6-7.9-8.6c-5.8,0-8.6,4.2-9.6,8.6H1986.6z"/>
	<path fill="#404041" d="M2047.8,757.2h0.8v-1c0-5-3.8-6.6-8.8-6.6c-7.5,0-16.1,5.7-16.1,5.7l-7-14.2c0,0,10.3-7.8,25.1-7.8
		c16.8,0,26.9,9.2,26.9,24.4v36.8h-18.3v-3.6c0-2,0.2-3.7,0.2-3.7h-0.2c0,0-4.4,8.7-16.9,8.7c-11.1,0-20.3-7.4-20.3-19.3
		C2013.1,759.2,2038.6,757.2,2047.8,757.2z M2039,780.6c5.2,0,9.9-5.7,9.9-10.6v-1.3h-1.9c-6.4,0-13.7,1.9-13.7,6.8
		C2033.3,778.4,2035.1,780.6,2039,780.6z"/>
	<path fill="#404041" d="M2083.3,751.4h-7.7v-15.7h8.2v-17.2h19.5v17.2h12.5v15.7h-12.5v18.3c0,6.7,6.8,7.7,10.7,7.7
		c1.6,0,2.7-0.1,2.7-0.1v17.4c0,0-2.2,0.3-5.5,0.3c-9.5,0-28-2.6-28-22.6V751.4z"/>
	<path fill="#404041" d="M2127.8,775.5h19v19h-19V775.5z"/>
</g>
<linearGradient id="SVGID_1_" gradientUnits="userSpaceOnUse" x1="84.5961" y1="484.9925" x2="872.4956" y2="484.9925">
	<stop  offset="0" style="stop-color:#D8DADB"/>
	<stop  offset="5.163179e-03" style="stop-color:#D7D9DA"/>
	<stop  offset="0.1699" style="stop-color:#B9BBBC"/>
	<stop  offset="0.3427" style="stop-color:#A2A4A5"/>
	<stop  offset="0.5278" style="stop-color:#919395"/>
	<stop  offset="0.7318" style="stop-color:#87898B"/>
	<stop  offset="0.991" style="stop-color:#848688"/>
	<stop  offset="1" style="stop-color:#848688"/>
</linearGradient>
<path fill="url(#SVGID_1_)" d="M854.3,757c-14.7-18.6-37.6-35-56-47.2c-39.6-26.3-75.7-45.1-115.1-59.7L497.4,137.4
	c-1-3.3-5.5-16-14.8-28.8c-15.1-20.7-35.3-31.6-58.5-31.6c-23.2,0-43.4,10.9-58.5,31.6c-9.4,12.9-13.8,25.5-14.8,28.8l-265,729.2
	c-3.7,10.2,1.6,21.5,11.8,25.3c2.2,0.8,4.5,1.2,6.7,1.2c6.2,0,12.1-3,15.8-8c0.6-0.8,1.2-1.6,1.7-2.4
	c39.6-66.9,96.1-122.9,163.2-162c69.2-40.3,148.3-61.6,228.8-61.6c36.6,0,72.7,4.4,107.6,12.8l0,0c10.6,2.8,21,5.9,31,9.2l33.9,93.8
	l0.1,0.2c0.1,0.4,13.7,36.7,23.5,61.4c11.5,29.1,32.6,48.3,59.4,54.3c5.6,1.2,11.3,1.9,17,1.9c21.5,0,43.4-8.6,60-24.1
	c16.8-15.8,25.9-36,26.2-58.3C872.7,791.3,866.1,771.9,854.3,757z M265.3,686.6c-36.4,21.2-70,47-99.8,76.6l222.9-613.8
	c0.1-0.2,3.4-9.6,9.7-18.3c6.8-9.4,14.3-14.6,26-14.6c11.7,0,19.4,5.3,26.1,14.6c6.2,8.7,9.4,17.6,9.6,18.4l175.9,485.4
	c-39.4-10-80.3-15.2-121.8-15.2C426.5,619.6,340.5,642.8,265.3,686.6z M819.3,839.8c-11.6,10.9-27.4,15.6-41.4,12.5
	c-13.8-3.1-24.6-13.6-31.3-30.4c-9.4-23.8-22.4-58.4-23.2-60.6l-22.1-61.2c24.8,11.4,49.2,25.1,75.2,42.4
	c15.9,10.6,35.6,24.6,46.9,38.8C833.3,794,840.5,820,819.3,839.8z"/>
<g>
	<linearGradient id="SVGID_2_" gradientUnits="userSpaceOnUse" x1="122.1055" y1="750.9235" x2="652.4773" y2="750.9235">
		<stop  offset="0.2768" style="stop-color:#FFFFFF;stop-opacity:0"/>
		<stop  offset="0.3213" style="stop-color:#F7F7F7;stop-opacity:1.037020e-02"/>
		<stop  offset="0.3897" style="stop-color:#E2E2E2;stop-opacity:2.630101e-02"/>
		<stop  offset="0.4734" style="stop-color:#C0BFBF;stop-opacity:4.581008e-02"/>
		<stop  offset="0.5692" style="stop-color:#908E8F;stop-opacity:6.814124e-02"/>
		<stop  offset="0.6753" style="stop-color:#534F51;stop-opacity:9.286139e-02"/>
		<stop  offset="0.7884" style="stop-color:#090406;stop-opacity:0.1192"/>
		<stop  offset="0.7917" style="stop-color:#070204;stop-opacity:0.12"/>
		<stop  offset="0.905" style="stop-color:#070204;stop-opacity:0.23"/>
	</linearGradient>
	<path fill="url(#SVGID_2_)" d="M513.9,619.6c-87.5,0-173.5,23.1-248.7,66.9c-36.4,21.2-70,47-99.8,76.6l-5.9,16.1l-37.5,103
		c39.6-66.7,96-122.6,163-161.6c69.2-40.3,148.3-61.6,228.8-61.6c36.6,0,72.7,4.4,107.6,12.8l0,0c10.6,2.8,21,5.9,30.9,9.2
		l-16.8-46.4C596.3,624.8,555.4,619.6,513.9,619.6z"/>
</g>
<linearGradient id="SVGID_3_" gradientUnits="userSpaceOnUse" x1="683.2039" y1="730.0043" x2="872.4869" y2="730.0043">
	<stop  offset="0.1078" style="stop-color:#070204;stop-opacity:0.23"/>
	<stop  offset="0.2389" style="stop-color:#070204;stop-opacity:0.2"/>
	<stop  offset="0.3002" style="stop-color:#161113;stop-opacity:0.1808"/>
	<stop  offset="0.4191" style="stop-color:#3E3A3B;stop-opacity:0.1435"/>
	<stop  offset="0.5837" style="stop-color:#7E7B7C;stop-opacity:9.195407e-02"/>
	<stop  offset="0.7855" style="stop-color:#D5D4D5;stop-opacity:2.870855e-02"/>
	<stop  offset="0.8771" style="stop-color:#FFFFFF;stop-opacity:0"/>
</linearGradient>
<path fill="url(#SVGID_3_)" d="M854.3,757c-14.7-18.6-37.6-35-56-47.2c-39.6-26.3-75.7-45.1-115.1-59.7l18.1,50.1l0,0
	c24.8,11.4,49.2,25.1,75.2,42.4c15.9,10.6,35.6,24.6,46.9,38.8c5.3,6.7,9.8,17.2,9.7,28.5h39.4C872.6,791,866,771.8,854.3,757z"/>
</svg>
