<?xml version="1.0" encoding="utf-8"?>
<!-- Generator: Adobe Illustrator 21.1.0, SVG Export Plug-In . SVG Version: 6.00 Build 0)  -->
<svg version="1.1" id="Layer_1" xmlns="http://www.w3.org/2000/svg" xmlns:xlink="http://www.w3.org/1999/xlink" x="0px" y="0px"
	 viewBox="0 0 353.1 52" enable-background="new 0 0 353.1 52" xml:space="preserve">
<g>
	<path fill="#FFFFFF" d="M109.2,12c4.5,0,8.1,1.5,11.1,4.6l0.2,0.2l4-3.9l-0.1-0.2c-3.6-4-9.1-6.2-15.4-6.2
		c-12.4,0-21.5,8.6-21.5,20.5s9,20.5,21.4,20.5c6.3,0,11.8-2.2,15.5-6.3l0.1-0.2l-4-3.9l-0.2,0.2c-3,3.1-6.7,4.7-11.1,4.7
		c-9,0-15.5-6.3-15.5-15S100.3,12,109.2,12 M141.6,42.3c-5.9,0-10-4.3-10-10.3c0-6.1,4.1-10.3,10-10.3c5.9,0,10,4.2,10,10.3
		C151.6,38.1,147.5,42.3,141.6,42.3 M141.6,16.5c-9.3,0-16,6.5-16,15.5c0,9,6.7,15.5,16,15.5c9.3,0,16-6.5,16-15.5
		C157.6,23,150.8,16.5,141.6,16.5 M175.6,42.3c-5.9,0-10.1-4.3-10.1-10.4c0-6.1,4.1-10.4,10.1-10.4c5.9,0,10,4.3,10,10.4
		C185.6,38,181.5,42.3,175.6,42.3z M185.6,20.7c-2.5-2.9-6.1-4.4-10.4-4.4c-9.2,0-15.6,6.4-15.6,15.6c0,9.2,6.4,15.6,15.6,15.6
		c4.4,0,8.2-1.7,10.6-4.7v4.3h5.7V4.5h-6L185.6,20.7L185.6,20.7z M210.7,21.5c4.9,0,8.6,3.3,9.3,8.1h-18.5
		C202.1,24.8,205.7,21.5,210.7,21.5 M210.7,16.5c-8.8,0-15.1,6.5-15.1,15.5c0,9.1,6.6,15.5,16.2,15.5c5,0,9.1-1.7,11.9-4.9l0.1-0.1
		l-3.3-3.8l-0.2,0.2c-2.1,2.3-4.9,3.5-8.4,3.5c-5.6,0-9.7-3.2-10.5-8.3h24l0-0.2c0.1-0.5,0.1-1.2,0.1-1.7
		C225.6,22.9,219.4,16.5,210.7,16.5 M252.9,38.1c-1.8,2.7-4.6,4.2-8.1,4.2c-6.1,0-10.2-4.2-10.2-10.3c0-6.1,4.2-10.3,10.2-10.3
		c3.5,0,6.3,1.4,8.1,4.2l0.1,0.2l4.6-2.9l-0.1-0.2c-2.4-4.1-7-6.5-12.6-6.5c-9.4,0-16.3,6.5-16.3,15.5c0,9,6.9,15.5,16.3,15.5
		c5.6,0,10.2-2.4,12.6-6.6l0.1-0.2l-4.6-2.8L252.9,38.1L252.9,38.1z M275.6,42.3c-5.9,0-10-4.3-10-10.3c0-6.1,4.1-10.3,10-10.3
		c5.9,0,10,4.2,10,10.3C285.6,38.1,281.5,42.3,275.6,42.3 M275.6,16.5c-9.3,0-16,6.5-16,15.5c0,9,6.7,15.5,16,15.5
		c9.3,0,16-6.5,16-15.5C291.6,23,284.8,16.5,275.6,16.5 M316.8,16.5l-10.2,23.4l-10-23.4h-6.1l13.1,29.9l0.1,0.1h5.8l13.1-30H316.8z
		 M53.1,4.5c-12.4,0-22.5,10-22.5,22.2v0.1l3.8,2.2l0.1,0c2.4-1.6,5.3-2.2,8.2-1.7c2,0.4,3.9,1.3,5.4,2.7l0.7,0.6l0.4-0.8
		c0.4-0.8,0.8-1.5,1.2-2.2c0.2-0.3,0.4-0.5,0.6-0.8l0.4-0.5l-0.5-0.4c-2.1-1.7-4.6-2.9-7.3-3.4C41,22,38.4,22.1,36,22.9
		c1.8-7.9,8.8-13.5,17.1-13.5c4.7,0,9.1,1.8,12.4,5.1c2.4,2.3,4,5.2,4.7,8.4c-1.5-0.5-3.1-0.7-4.7-0.7l-0.3,0
		c-0.6,0-1.2,0.1-1.9,0.1l-0.1,0c-0.2,0-0.5,0.1-0.7,0.1c-0.4,0.1-0.7,0.1-1.1,0.2l-0.3,0.1c-0.3,0.1-0.6,0.2-0.9,0.3l-0.1,0
		c-0.7,0.2-1.3,0.5-2,0.8l0,0c-0.3,0.1-0.6,0.3-0.9,0.5l-0.1,0c-1.5,0.9-2.9,2-4,3.4l-0.1,0.2c-0.3,0.4-0.5,0.7-0.7,0.9
		c-0.2,0.2-0.3,0.5-0.5,0.8l-0.1,0.2c-0.2,0.3-0.3,0.6-0.4,0.8l0,0.1c-0.3,0.6-0.6,1.3-0.8,2l0,0.1c-0.5,1.6-0.8,3.3-0.8,5.1l0,0.2
		c0,0.2,0,0.5,0,0.7c0,0.1,0,0.2,0,0.3c0,0.1,0,0.3,0,0.4l0,0.1l0,0.2c0,0.2,0.1,0.5,0.1,0.7c0.5,2.4,1.6,4.7,3.3,6.8l0.1,0.1
		l0.1-0.1c0.7-0.8,2.3-3.3,2.5-4.8l0,0l0,0c-0.8-1.5-1.2-3.2-1.2-4.8c0-5.6,4.4-10.3,10.1-10.6l0.4,0c2.3-0.1,4.6,0.6,6.5,1.9l0.1,0
		l3.8-2.2l0,0v-0.1c0-5.9-2.3-11.5-6.6-15.7C64.7,6.8,59.1,4.5,53.1,4.5"/>
</g>
</svg>
