<?xml version="1.0" encoding="utf-8"?>
<!-- Generator: Adobe Illustrator 21.1.0, SVG Export Plug-In . SVG Version: 6.00 Build 0)  -->
<svg version="1.1" id="Layer_1" xmlns="http://www.w3.org/2000/svg" xmlns:xlink="http://www.w3.org/1999/xlink" x="0px" y="0px"
	 viewBox="0 0 203 23.345" enable-background="new 0 0 203 23.345" xml:space="preserve">
<g>
	<g>
		<g>
			<path fill="#FFFFFF" d="M58.5,5.073c2.2,0,3.7,0.7,5.1,2c0.2,0.2,0.2,0.4,0,0.5l-1.6,1.7c-0.1,0.1-0.4,0.1-0.5,0
				c-0.8-0.7-1.9-1.1-2.8-1.1c-2.4,0-4.2,2-4.2,4.4s1.7,4.4,4.3,4.4c1,0,2.1-0.3,2.8-1c0.1-0.1,0.4-0.1,0.5,0l1.6,1.7
				c0.1,0.1,0.1,0.4,0,0.5c-1.4,1.4-3.3,2.1-5.2,2.1c-4.3,0-7.8-3.4-7.8-7.7S54.3,5.073,58.5,5.073z"/>
			<path fill="#FFFFFF" d="M72.9,5.073c4.3,0,7.8,3.5,7.8,7.8s-3.4,7.7-7.8,7.7s-7.7-3.4-7.7-7.7S68.6,5.073,72.9,5.073z
				 M72.9,17.173c2.4,0,4.3-2,4.3-4.3c0-2.4-2-4.3-4.3-4.3s-4.3,2-4.3,4.3S70.6,17.173,72.9,17.173z"/>
			<path fill="#FFFFFF" d="M83.1,5.773c0-0.2,0.2-0.4,0.4-0.4h5.2c4.2,0,7.5,3.4,7.5,7.4c0,4.2-3.4,7.5-7.5,7.5h-5.2
				c-0.2,0-0.4-0.2-0.4-0.4V5.773z M88.6,17.173c2.4,0,4.2-1.9,4.2-4.4c0-2.4-1.7-4.4-4.2-4.4h-2.1v8.6L88.6,17.173L88.6,17.173z"/>
			<path fill="#FFFFFF" d="M98.9,5.773c0-0.2,0.2-0.4,0.4-0.4h8.9c0.2,0,0.4,0.2,0.4,0.4v2.3c0,0.2-0.2,0.4-0.4,0.4h-5.9v2.7h4.9
				c0.2,0,0.4,0.2,0.4,0.4v2.3c0,0.2-0.2,0.4-0.4,0.4h-4.9v2.9h5.9c0.2,0,0.4,0.2,0.4,0.4v2.3c0,0.2-0.2,0.4-0.4,0.4h-8.9
				c-0.2,0-0.4-0.2-0.4-0.4V5.773z"/>
		</g>
		<g>
			<path fill="#FFFFFF" d="M122.8,5.073c2.2,0,3.7,0.7,5.1,2c0.2,0.2,0.2,0.4,0,0.5l-1.6,1.7c-0.1,0.1-0.4,0.1-0.5,0
				c-0.8-0.7-1.9-1.1-2.8-1.1c-2.4,0-4.2,2-4.2,4.4s1.7,4.4,4.3,4.4c1,0,2.1-0.3,2.8-1c0.1-0.1,0.4-0.1,0.5,0l1.6,1.7
				c0.1,0.1,0.1,0.4,0,0.5c-1.4,1.4-3.3,2.1-5.2,2.1c-4.3,0-7.8-3.4-7.8-7.7S118.5,5.073,122.8,5.073z"/>
			<path fill="#FFFFFF" d="M130.7,5.773c0-0.2,0.2-0.4,0.4-0.4h2.5c0.2,0,0.4,0.2,0.4,0.4v11.5h5.1c0.2,0,0.4,0.2,0.4,0.4v2.2
				c0,0.2-0.2,0.4-0.4,0.4H131c-0.2,0-0.4-0.2-0.4-0.4v-14.1H130.7z"/>
			<path fill="#FFFFFF" d="M141.6,5.773c0-0.2,0.2-0.4,0.4-0.4h2.6c0.2,0,0.4,0.2,0.4,0.4v14.2c0,0.2-0.2,0.4-0.4,0.4H142
				c-0.2,0-0.4-0.2-0.4-0.4V5.773z"/>
			<path fill="#FFFFFF" d="M150.1,5.473c0-0.2,0.2-0.3,0.4-0.3h0.3c0.1,0,0.3,0.1,0.3,0.2l4.9,9.3l0,0l4.9-9.3
				c0.1-0.1,0.2-0.2,0.3-0.2h0.3c0.2,0,0.3,0.1,0.4,0.3l2.4,14.4c0,0.3-0.1,0.4-0.4,0.4h-2.5c-0.2,0-0.4-0.2-0.4-0.3l-1-6.7l0,0
				l-3.6,7c-0.1,0.1-0.2,0.2-0.3,0.2h-0.4c-0.1,0-0.3-0.1-0.3-0.2l-3.6-7l0,0l-1,6.7c0,0.2-0.2,0.3-0.4,0.3h-2.5
				c-0.2,0-0.4-0.2-0.4-0.4L150.1,5.473z"/>
			<path fill="#FFFFFF" d="M165.5,19.773l6.7-14.4c0.1-0.1,0.2-0.2,0.3-0.2h0.2c0.1,0,0.3,0.1,0.3,0.2l6.7,14.4
				c0.1,0.3,0,0.5-0.3,0.5H177c-0.4,0-0.5-0.1-0.8-0.5l-0.8-1.6h-5.7l-0.8,1.7c-0.1,0.2-0.3,0.5-0.8,0.5h-2.4
				C165.5,20.273,165.4,20.073,165.5,19.773z M174.4,15.172l-1.6-3.5l0,0l-1.6,3.5H174.4z"/>
			<path fill="#FFFFFF" d="M182.8,8.472h-3.1c-0.2,0-0.4-0.2-0.4-0.4v-2.3c0-0.2,0.2-0.4,0.4-0.4h9.5c0.2,0,0.4,0.2,0.4,0.4v2.3
				c0,0.2-0.2,0.4-0.4,0.4h-3.1v11.4c0,0.2-0.2,0.4-0.4,0.4h-2.6c-0.2,0-0.4-0.2-0.4-0.4L182.8,8.472L182.8,8.472z"/>
			<path fill="#FFFFFF" d="M191.8,5.773c0-0.2,0.2-0.4,0.4-0.4h8.9c0.2,0,0.4,0.2,0.4,0.4v2.3c0,0.2-0.2,0.4-0.4,0.4h-5.9v2.7h4.9
				c0.2,0,0.4,0.2,0.4,0.4v2.3c0,0.2-0.2,0.4-0.4,0.4h-4.9v2.9h5.9c0.2,0,0.4,0.2,0.4,0.4v2.3c0,0.2-0.2,0.4-0.4,0.4h-8.9
				c-0.2,0-0.4-0.2-0.4-0.4V5.773L191.8,5.773z"/>
		</g>
	</g>
	<g>
		<polygon fill="#FFFFFF" points="28.3,0.572 20.7,8.172 25.2,12.672 28.3,9.572 37.1,18.373 41.6,13.773 		"/>
		<polygon fill="#FFFFFF" points="19.3,9.472 14.8,4.973 3.2,16.472 1.5,18.373 6,22.773 7.8,21.073 13.6,15.172 14.8,14.072 
			19.3,18.573 23.6,22.773 28.1,18.373 23.8,14.072 		"/>
	</g>
</g>
</svg>
