<?xml version="1.0" encoding="utf-8"?>
<!-- Generator: Adobe Illustrator 21.1.0, SVG Export Plug-In . SVG Version: 6.00 Build 0)  -->
<svg version="1.1" id="Layer_1" xmlns="http://www.w3.org/2000/svg" xmlns:xlink="http://www.w3.org/1999/xlink" x="0px" y="0px"
	 viewBox="0 0 580 200" enable-background="new 0 0 580 200" xml:space="preserve">
<title>codility_navy_vector</title>
<desc>Created with Sketch.</desc>
<g id="codility_navy_vector">
	<g transform="translate(59.000000, 33.000000)">
		<g id="Group-3" transform="translate(0.000000, 27.000000)">
			<g id="Fill-1-Clipped">
				<g id="path-1_1_">
				</g>
				<defs>
					<filter id="Adobe_OpacityMaskFilter" filterUnits="userSpaceOnUse" x="0" y="0.9" width="52.2" height="76.2">
						<feColorMatrix  type="matrix" values="1 0 0 0 0  0 1 0 0 0  0 0 1 0 0  0 0 0 1 0"/>
					</filter>
				</defs>
				<mask maskUnits="userSpaceOnUse" x="0" y="0.9" width="52.2" height="76.2" id="mask-2">
					<g filter="url(#Adobe_OpacityMaskFilter)">
						<polygon id="path-1" fill="#FFFFFF" points="0.1,0.9 0.1,77.1 52.2,77.1 52.2,0.9 						"/>
					</g>
				</mask>
				<path id="Fill-1" mask="url(#mask-2)" fill="#FFFFFF" d="M37.8,24.1V14c-2.2-0.3-4.6-0.6-7-0.6c-12,0-15,7.2-15,16.4v18.4
					c0,9.2,3,16.4,15,16.4c8.4,0,14.5-1.1,19.6-2.1l1.8,11.4c-4.3,1.1-13.1,3.2-21.4,3.2C8.1,77.1,0,66.1,0,46.4V31.6
					C0,11.9,8.1,0.9,30.8,0.9c8.6,0,16.3,2.6,20.2,4v19.1H37.8"/>
			</g>
		</g>
		<path id="Fill-4" fill="#FFFFFF" d="M161.3,92.6c4.6,0,13.9-3.3,17.9-4.8v-39c-4-2.8-13.3-8.1-17.9-8.1c-6,0-6.5,5.2-6.5,13.1
			v24.9C154.8,86.9,155.3,92.6,161.3,92.6z M195,90.5h8v12.1h-23.8V96c-6.2,3-16.6,8-24,8c-15.4,0-16.2-12.3-16.2-26.2V54.5
			c0-13.9,0.8-26.2,16.2-26.2c7.3,0,17.7,6.9,24,11.2V12.1h-8V0H195V90.5z"/>
		<polyline id="Fill-5" fill="#FFFFFF" points="250,103 217,103 217,90.9 225.8,90.9 225.8,42.1 217.4,42.1 217.4,30 241.5,30 
			241.5,90.9 250,90.9 250,103 		"/>
		<polyline id="Fill-6" fill="#FFFFFF" points="295,103 262,103 262,90.8 270.3,90.8 270.3,12.2 262.3,12.2 262.3,0 286.3,0 
			286.3,90.8 295,90.8 295,103 		"/>
		<polyline id="Fill-7" fill="#FFFFFF" points="340,103 307,103 307,90.9 315.8,90.9 315.8,42.1 307.4,42.1 307.4,30 331.5,30 
			331.5,90.9 340,90.9 340,103 		"/>
		<g id="Group-11" transform="translate(347.000000, 13.000000)">
			<g id="Fill-8-Clipped">
				<g id="path-3_1_">
				</g>
				<defs>
					<filter id="Adobe_OpacityMaskFilter_1_" filterUnits="userSpaceOnUse" x="0.3" y="0.2" width="45" height="90.7">
						<feColorMatrix  type="matrix" values="1 0 0 0 0  0 1 0 0 0  0 0 1 0 0  0 0 0 1 0"/>
					</filter>
				</defs>
				<mask maskUnits="userSpaceOnUse" x="0.3" y="0.2" width="45" height="90.7" id="mask-4">
					<g filter="url(#Adobe_OpacityMaskFilter_1_)">
						<polygon id="path-3" fill="#FFFFFF" points="0.3,121.3 114.8,121.3 114.8,60.9 114.8,0.5 0.3,0.5 						"/>
					</g>
				</mask>
				<path id="Fill-8" mask="url(#mask-4)" fill="#FFFFFF" d="M45.3,86.7c-7.7,2.6-12.8,4.2-18.3,4.2c-10.1,0-17.4-5-17.4-18.4V28.7
					H0.3V16.2h9.2V0.2h15.7v15.9h16.1v12.5H25.3v43.5c0,4,1.5,5.7,4.7,5.7c3.3,0,7.4-1.4,11.7-3.1L45.3,86.7"/>
			</g>
			<g id="Fill-10-Clipped">
				<g id="path-3_2_">
				</g>
				<defs>
					<filter id="Adobe_OpacityMaskFilter_2_" filterUnits="userSpaceOnUse" x="50.8" y="16.2" width="64" height="104.9">
						<feColorMatrix  type="matrix" values="1 0 0 0 0  0 1 0 0 0  0 0 1 0 0  0 0 0 1 0"/>
					</filter>
				</defs>
				<mask maskUnits="userSpaceOnUse" x="50.8" y="16.2" width="64" height="104.9" id="mask-6">
					<g filter="url(#Adobe_OpacityMaskFilter_2_)">
						<polygon id="path-5" fill="#FFFFFF" points="114.8,121.3 114.8,60.9 114.8,0.5 0.3,0.5 0.3,121.3 						"/>
					</g>
				</mask>
				<path id="Fill-10" mask="url(#mask-6)" fill="#FFFFFF" d="M50.8,28.4V16.2h23.7v49.2c0,8.3,0.7,14,6.5,14c4.8,0,14.3-3.6,18.1-5
					v-46h-8V16.2h23.7v82.2c0,19.3-11.2,22.7-19.7,22.7c-8.1,0-23.3-3.7-35.4-6.9l3.2-11.4c11.7,2.9,24.4,5.8,29,5.8
					c7,0,7.3-5,7.3-15.2V82.7C93,85.8,82.4,90.9,75,90.9c-15.3,0-16.1-12.3-16.1-26.3V28.4H50.8"/>
			</g>
		</g>
		<path id="Fill-12" fill="#FFFFFF" d="M95.9,92.5c-4.1,0-7.1-0.7-9.2-2L109.3,56v26.7C109.3,88.6,105.8,92.5,95.9,92.5z M95.9,39.5
			c4.2,0,7.3,0.6,9.4,1.9L82.7,76V49.3C82.7,43,86.2,39.5,95.9,39.5z M95.9,28C76.2,28,67,34.1,67,49.2v33.6
			c0,15.1,9.2,21.2,28.9,21.2c19.7,0,29.1-6.1,29.1-21.2V49.2C125,34.1,115.7,28,95.9,28z"/>
	</g>
</g>
</svg>
