<?xml version="1.0" encoding="utf-8"?>
<!-- Generator: Adobe Illustrator 21.1.0, SVG Export Plug-In . SVG Version: 6.00 Build 0)  -->
<svg version="1.1" xmlns="http://www.w3.org/2000/svg" xmlns:xlink="http://www.w3.org/1999/xlink" x="0px" y="0px"
	 viewBox="0 0 360 152" enable-background="new 0 0 360 152" xml:space="preserve">
<g id="work" display="none">
	<g id="logo_v3__x28_stroke_x29_" display="inline">
		<g id="logo-8pt-stroke">
		</g>
		<g id="logo-9pt-stroke">
		</g>
	</g>
</g>
<g id="white">
</g>
<g id="purple">
	<g>
		<g>
			<path fill="#FFFFFF" d="M88.484,29.652H21.743c-4.608,0-8.343,3.735-8.343,8.343v76.011c0,4.608,3.735,8.343,8.343,8.343h66.742
				c4.608,0,8.343-3.735,8.343-8.343V37.994C96.827,33.387,93.092,29.652,88.484,29.652z M92.192,114.006
				c0,2.045-1.663,3.708-3.708,3.708H21.743c-2.045,0-3.708-1.663-3.708-3.708V37.994c0-2.045,1.663-3.708,3.708-3.708h66.742
				c2.045,0,3.708,1.663,3.708,3.708V114.006z"/>
			<polygon fill="#FFFFFF" points="34.257,108.444 44.685,99.174 34.257,89.905 			"/>
			<path fill="#FFFFFF" d="M71.934,70.873c-1.868-1.89-5.298-4.143-11.028-4.143c-6.284,0-12.753,1.635-17.381,3.141V43.556h-9.27
				v40.198l6.548-2.966C40.91,80.74,51.482,76,60.907,76c4.706,0,5.748,2.599,5.794,4.762v27.682h9.27L75.97,80.635
				C75.976,80.042,75.921,74.905,71.934,70.873z"/>
			<path fill="#FFFFFF" d="M59.748,58.619h9.27c4.192-4.751,6.326-9.799,6.952-15.063H66.7
				C65.679,48.81,63.391,53.839,59.748,58.619z"/>
		</g>
		<g>
			<path fill="#FFFFFF" d="M117.684,59.833h9.24v12.705h11.366V59.833h9.242v34.191h-9.242V80.208h-11.366v13.816h-9.24V59.833z"/>
			<path fill="#FFFFFF" d="M159.435,59.833h24.395v7.67h-15.154v5.545h10.812v7.208h-10.812v6.328h15.941v7.439h-25.181V59.833z"/>
			<path fill="#FFFFFF" d="M194.766,59.833h13.353c8.778,0,14.138,2.912,14.138,11.135c0,5.359-2.265,8.457-6.746,9.979
				l7.253,13.077h-9.794l-6.608-11.873h-2.541v11.873h-9.056V59.833z M207.795,75.125c3.789,0,5.452-1.063,5.452-3.927
				c0-2.864-1.663-3.882-5.452-3.882h-3.973v7.808H207.795z"/>
			<path fill="#FFFFFF" d="M231.898,76.927c0-12.519,8.547-17.742,16.818-17.742c8.224,0,16.773,5.223,16.773,17.742
				c0,12.522-8.548,17.742-16.773,17.742C240.445,94.669,231.898,89.448,231.898,76.927z M256.246,76.927
				c0-6.283-2.726-10.117-7.531-10.117c-4.851,0-7.577,3.834-7.577,10.117c0,6.286,2.726,10.351,7.577,10.351
				C253.52,87.278,256.246,83.213,256.246,76.927z"/>
			<path fill="#FFFFFF" d="M275.774,59.833h9.24v12.383l9.426-12.383h10.719l-11.505,13.491l12.522,20.699h-10.443l-8.085-13.677
				l-2.634,3.05v10.627h-9.24V59.833z"/>
			<path fill="#FFFFFF" d="M314.708,80.301V59.833h9.24v20.423c0,4.71,1.525,6.836,5.222,6.836c3.696,0,5.174-2.125,5.174-6.836
				V59.833h9.056v20.468c0,9.057-4.343,14.23-14.323,14.23S314.708,89.358,314.708,80.301z"/>
		</g>
	</g>
</g>
</svg>
