<?xml version="1.0" encoding="utf-8"?>
<!-- Generator: Adobe Illustrator 21.1.0, SVG Export Plug-In . SVG Version: 6.00 Build 0)  -->
<svg version="1.1" id="Layer_1" xmlns="http://www.w3.org/2000/svg" xmlns:xlink="http://www.w3.org/1999/xlink" x="0px" y="0px"
	 viewBox="0 0 202.1 195.5" enable-background="new 0 0 202.1 195.5" xml:space="preserve">
<path fill="#FFFFFF" d="M49.7,42L49.7,42c1,1,2.6,0.9,3.6,0.4c1-0.6,0.8-2.1-0.2-3.4c-0.6-0.8-2.4-1.2-3.6,0
	C48.5,40.1,49,41.3,49.7,42 M21.2,27.4L21.2,27.4c3.1,1.9,5.1,4.8,7.4,2.2c0.8-0.8,1.8-2.5,0.1-5.5c-1.2-2.3-5.3-3.2-6.7-2.3
	C20.6,22.6,18.8,25.9,21.2,27.4z M55.7,28.4L55.7,28.4c1.7,0.5,2.5,2.1,3.9,0.3c0.7-0.9,0.8-2.1-0.2-3.4c-0.6-0.8-3.4-1.4-4.6-0.2
	C53.7,26.2,54.8,28.1,55.7,28.4z M167.3,46.8L167.3,46.8c-1.1,1.5-1.2,2.6-0.4,3.4c0.9,0.9,2.6,1.6,3.9,0.6c1.3-1,1.3-2.5,0.2-3.8
	C169.9,45.7,168.5,45.7,167.3,46.8z M168.3,31.2L168.3,31.2c1.3,1.3,4.8,0.4,5.6-0.5c2.1-2.4,2.2-3.8,1.1-5.4
	c-1.1-1.6-3.4-1.3-5.6,0.4C167.1,27.4,167.5,30.5,168.3,31.2z M113.9,25.7L113.9,25.7c0.4,3.1,0.9,3,2,3.3c1.1,0.3,2.5-1.4,2.5-3.1
	c0-1.7-0.7-2.7-2.4-2.7C114.4,23.2,113.8,24.1,113.9,25.7z M74.7,63.4L74.7,63.4c-2.9-1.3-6-6.3-7.2-8.3c3.3-3.2,2-8.6,0.1-11.6
	c-1.9-3-4.1-2.1-6.6-4.8C58.6,36,62,29,65.1,34.4C77,54.8,84.7,46.3,94.4,45.1c9.3-1.2,17.5,3.9,20-10.4c0.4-2.3,2.7-2.9,2.9,1
	c0.2,3.9,1.7,13.3,6.8,14.5c5.1,1.2,9.2-1.2,10.4-2.5c1.2-1.3,1.8-1.1,2.3,2.2c0.5,3.3,1.8,7.9,9,2.8c14.7-10.5,10.5-14.5,16.2-17.2
	c3.2-1.5,8.4,3.4,1,7.2c-10.6,5.3-11.7,12-18.4,16.2c-11.2,7.1-7.8,0.3-25.9-2.3c-7-1-9.2,6.8-14.6,4.5
	C91.6,55.8,82.8,56.8,74.7,63.4z M140.7,84.2L140.7,84.2c-11.9,7.7-48.5,10.6-64.3,0.7C64.1,77.2,68.3,64.9,33,38
	c-4.6-3.5,0.9-7.3,4.3-4.9c3.5,2.4,0.3,3,7.3,10c14.1,14.1,14,1.4,16.2,6.2c4.7,10.1,15,20.2,15,20.2c10.4,6.7,18.6,8.2,33.9-2.1
	c9.7-6.6,5.7,10.4,29.5-1.8c8.7-4.5,8.3-1.5,17.1-13.8c3.7-5.1,10.6,3.9,2.7,5.2c-3.2,0.5-8.5,4-10.8,9.4
	C144.9,74.6,146.3,80.6,140.7,84.2z M166.2,84.7L166.2,84.7c0-4.5-3.8-8.6-10.3-12c1.5,1.8,2.4,3.8,2.4,5.9
	c0,10.8-23,19.5-51.3,19.5c-28.3,0-51.3-8.7-51.3-19.5c0-1.4,0.4-2.7,1.1-4c-4.6,3-7.1,6.5-7.1,10.1c0,11.7,26.1,21.1,58.3,21.1
	S166.2,96.4,166.2,84.7z M180.1,91.3L180.1,91.3c0-4.2-2.6-8.2-7.1-11.4c0.4,1.3,0.6,2.6,0.6,4c0,12.2-17,22.6-41.1,26.9
	c2.7,0.3,5.5,0.5,8.5,0.5C162.6,111.2,180.1,102.3,180.1,91.3z M56,66L56,66c-11.8,2.9-19.8,8.5-19.8,15c0,4,3.1,7.7,8.2,10.6
	c-1.5-2.5-2.4-5-2.4-7.7C42,77.1,47.3,70.9,56,66z M174.3,128L174.3,128l-3.9-6.3c-2.2,2.1-4.8,3.3-7.4,3.3c-1.2,0-1.8-0.2-4.4-0.8
	c-2.6-0.7-4.4-1-6.5-1c-9.2,0-15.2,5-15.2,12.8c0,5.6,2.5,9.1,7.7,10.5c-2.1,0.5-4.4,1.6-5.5,2.9c-0.8,0.9-1.1,2.1-1.1,3.5
	c0,1.2,0.3,2.2,0.7,3.1c0.5,0.8,1.2,1.5,2,1.8c1.7,0.7,4.4,1.1,8.6,1.2c2.2,0,3.5,0.1,4,0.1c2.6,0.1,3.9,0.6,4.9,1.1
	c1,0.6,1.7,1.9,1.7,3.4c0,1.5-0.9,3-2.2,3.8c-1.3,0.9-3.3,1.3-6,1.3c-4.4,0-6.7-1.6-6.7-4.7c0-1.3,0.1-1.6,0.4-2.4h-8.7
	c-0.3,0.7-0.8,1.8-0.8,3.8c0,2.6,1,4.8,3,6.7c3.2,3.2,8.5,4.1,13.6,4.1c5.6,0,11-1.3,14.2-4.9c2-2.2,2.9-4.7,2.9-7.8
	c0-3.4-1-6-3.1-8.1c-2.5-2.4-5.4-3.3-10.9-3.4l-5.1-0.1c-1,0-1.5-0.4-1.5-0.9c0-1,1.3-1.9,3.7-3.1c0.7,0.1,1,0.1,1.4,0.1
	c7.6,0,13.3-4.7,13.3-11.2c0-2.5-0.7-4.4-2.1-6.2c1.2,0.1,1.5,0.2,2.5,0.2C170.3,130.8,172.2,130,174.3,128z M157.6,136L157.6,136
	c0,3.5-2,5.4-5.8,5.4c-3.3,0-5.5-1.6-5.5-5.4c0-3.5,2-5.6,5.6-5.6C155.5,130.4,157.6,132.5,157.6,136z M130.7,157.2L130.7,157.2
	c3.1-3.7,4.5-8.1,4.5-14.6c0-6.1-1.3-10.3-4.1-13.8c-3.1-3.8-7.1-5.7-12.2-5.7c-9.7,0-16.1,7.9-16.1,19.8c0,11.9,6.4,19.6,16.1,19.6
	C124.4,162.5,128,160.5,130.7,157.2z M124.9,142.5L124.9,142.5c0,8.9-1.8,12.8-5.8,12.8c-1.8,0-3.9-1-4.8-3.1
	c-0.8-1.9-1.2-5.2-1.2-9.5c0-3.8,0.3-6.4,1-8.4c0.8-2.4,2.6-3.8,4.8-3.8c1.7,0,3.2,0.7,4.1,2C124.3,134.1,124.9,137.4,124.9,142.5z
	 M35.4,168.4L35.4,168.4l4.6,5.3c4.4-1.8,10-5.8,11.4-12c0.5-2.1,0.7-3.4,0.7-10v-41.1h-10v42.2c0,5.5-0.2,7.6-1,9.5
	C40.2,164.3,38,166.8,35.4,168.4z M58.5,110.5L58.5,110.5h-1v51.2h9.8V139h12.4v-8.4H67.3v-11.7h15.5l0.6-4.5
	C74.1,113.6,65.6,112.1,58.5,110.5z M91.1,123l-8.4,2.4c0.8,2.1,1.3,6,1.3,11.1v25.3h9.4v-26.7c1.8-2.1,3.6-3.2,5.8-3.2
	c1.1,0,1.8,0.2,2.7,0.7l2.6-8.7c-1.5-0.7-2.1-0.8-3.5-0.8c-1.1,0-2.3,0.2-3.1,0.6c-1.8,0.9-4,2.9-5.3,4.8
	C92.5,126.2,92,124.5,91.1,123z"/>
</svg>
