<?xml version="1.0" encoding="utf-8"?>
<!-- Generator: Adobe Illustrator 21.1.0, SVG Export Plug-In . SVG Version: 6.00 Build 0)  -->
<svg version="1.1" id="Layer_1" xmlns="http://www.w3.org/2000/svg" xmlns:xlink="http://www.w3.org/1999/xlink" x="0px" y="0px"
	 viewBox="0 0 450 111.3" enable-background="new 0 0 450 111.3" xml:space="preserve">
<title>logo-algolia-full-white</title>
<g id="Layer_2">
	<g id="Layer_1-2">
		<path fill="#FFFFFF" d="M216.6,62.7V15.6l-9.5,1.5v47.4c0,2,0,14.7,15.6,14.6v-8C216.6,71.1,216.6,63.9,216.6,62.7z M199.1,46.6
			c-0.5-1.9-1.4-3.7-2.7-5.3c-1.4-1.5-3.2-2.6-5.1-3.2c-2.6-0.8-5.2-1.2-7.9-1.2c-2.5,0-4.9,0.2-7.4,0.6c-1.8,0.3-3.5,0.7-5.2,1.2
			l1.1,7.8c1.5-0.5,3-0.9,4.5-1.1c2-0.4,4-0.6,6-0.6c1.4,0,2.8,0.2,4.1,0.7c1,0.4,1.9,1,2.6,1.8c0.6,0.8,1.1,1.6,1.4,2.6
			c0.3,1,0.4,2.1,0.4,3.1v1.6c-1.2-0.3-2.4-0.5-3.7-0.7c-1.1-0.1-2.2-0.2-3.3-0.2c-2.2,0-4.3,0.2-6.5,0.7c-1.9,0.4-3.8,1.1-5.4,2.2
			c-1.5,1-2.8,2.3-3.7,3.9c-1,1.6-1.4,3.5-1.4,5.4c-0.1,2.2,0.4,4.4,1.2,6.4c0.8,1.6,1.9,3,3.4,4c1.6,1.1,3.3,1.9,5.2,2.2
			c2.2,0.5,4.5,0.7,6.7,0.7c3.3,0,6.7-0.2,10-0.7c3-0.4,5.2-0.8,6.6-1.1V53.2C200,50.9,199.7,48.7,199.1,46.6z M190.8,70.9
			c-2.2,0.4-4.4,0.5-6.6,0.5c-2,0.1-4-0.4-5.7-1.3c-1.4-0.8-2.2-2.1-2.2-4.4c0-0.8,0.2-1.7,0.8-2.3c0.5-0.7,1.2-1.3,2.1-1.7
			c0.9-0.4,1.9-0.7,2.9-0.8c1.1-0.2,2.1-0.3,3.2-0.2c1.1,0,2.2,0.1,3.3,0.2c0.8,0.1,1.5,0.3,2.3,0.5L190.8,70.9z M386,46.3
			c-0.5-1.9-1.4-3.7-2.7-5.3c-1.4-1.5-3.2-2.6-5.1-3.2c-2.6-0.8-5.2-1.2-7.9-1.2c-2.5,0-4.9,0.2-7.4,0.6c-1.8,0.3-3.5,0.7-5.2,1.2
			l1.1,7.8c1.5-0.5,3-0.9,4.5-1.1c2-0.4,4-0.6,6-0.6c1.4,0,2.8,0.2,4.1,0.7c1,0.4,1.9,1,2.6,1.8c0.6,0.8,1.1,1.7,1.4,2.6
			c0.3,1,0.4,2.1,0.4,3.1v1.5c-1.2-0.3-2.5-0.5-3.7-0.7c-1.1-0.1-2.2-0.2-3.3-0.2c-2.2,0-4.3,0.2-6.5,0.7c-1.9,0.4-3.8,1.1-5.4,2.2
			c-1.5,1-2.8,2.3-3.7,3.9c-1,1.6-1.4,3.5-1.4,5.4c-0.1,2.2,0.4,4.4,1.2,6.4c0.8,1.6,1.9,3,3.4,4c1.6,1.1,3.4,1.9,5.2,2.2
			c2.2,0.5,4.5,0.7,6.7,0.7c3.3,0,6.7-0.2,10-0.7c3-0.4,5.2-0.8,6.6-1.1V52.9C386.8,50.7,386.5,48.5,386,46.3z M377.6,70.6
			c-2.2,0.4-4.4,0.5-6.6,0.5c-2,0.1-4-0.3-5.7-1.3c-1.4-0.8-2.2-2.1-2.2-4.4c-0.1-0.8,0.2-1.7,0.8-2.3c0.5-0.8,1.2-1.4,2.1-1.8
			c0.9-0.4,1.9-0.7,2.9-0.8c1.1-0.2,2.1-0.2,3.2-0.2c1.9,0,3.8,0.2,5.6,0.7V70.6z M341.7,20.6c-3.2,0-5.8,2.6-5.7,5.8
			s2.6,5.8,5.8,5.7c3.2,0,5.7-2.6,5.7-5.8C347.4,23.2,344.9,20.6,341.7,20.6z M336.9,38.1v41h9.5V36.6L336.9,38.1z M323.6,62.7V15.6
			l-9.5,1.5v47.4c0,2,0,14.7,15.6,14.6v-8C323.6,71.1,323.6,63.9,323.6,62.7z M307,49.2c-0.9-2.5-2.2-4.8-4-6.7
			c-1.7-1.9-3.9-3.4-6.2-4.3c-2.5-1-5.2-1.5-8-1.5c-2.7,0-5.4,0.5-7.9,1.5c-2.4,1-4.5,2.5-6.2,4.3c-1.8,1.9-3.2,4.2-4.1,6.7
			c-1,2.9-1.4,5.9-1.4,8.9c0,2.8,0.5,5.6,1.5,8.3c0.9,2.5,2.2,4.8,4,6.8c1.7,1.9,3.8,3.4,6.2,4.3c2.6,1,5.3,1.5,8,1.6
			c2.7-0.1,5.4-0.6,8-1.6c2.4-1,4.5-2.5,6.2-4.3c1.8-2,3.1-4.3,4-6.8c1-2.6,1.5-5.5,1.4-8.3C308.6,55.1,308.1,52,307,49.2z
			 M296.2,67.5c-3.1,4.1-8.9,4.8-13,1.7c-0.6-0.5-1.2-1.1-1.7-1.7c-1.8-2.4-2.6-5.2-2.6-9.3s0.9-7.5,2.6-9.9c3.1-4.1,9-4.8,13-1.6
			c0.6,0.5,1.2,1,1.6,1.6c1.8,2.4,2.6,5.8,2.6,9.9S298,65,296.2,67.5z M256.4,37.7c-2.9-0.5-5.8-0.8-8.7-0.9c-3,0-5.9,0.5-8.6,1.6
			c-2.4,0.9-4.6,2.3-6.4,4.2c-1.8,1.8-3.1,4-4,6.4c-0.9,3-1.4,6-1.4,9.1c0,3.3,0.4,6.6,1.3,9.8c0.8,2.2,2,4.3,3.6,6
			c1.6,1.6,3.5,2.8,5.6,3.6c2.3,0.9,4.7,1.3,7.2,1.2c1.8,0,3.6-0.2,5.3-0.7c1.3-0.4,2.5-0.9,3.7-1.4v1.5c0,3.1-0.8,5.4-2.4,6.9
			s-4.4,2.3-8.2,2.3c-3.5,0-7-0.3-10.5-0.9l-1.5,7.5c3.9,0.8,7.9,1.3,11.9,1.4c6.9,0,11.9-1.5,15.3-4.5c3.3-3,5-7.7,5-14.2V39.2
			C261.1,38.6,258.8,38.1,256.4,37.7z M254,69c-1,0.7-2.1,1.2-3.3,1.5c-1.4,0.4-2.8,0.6-4.3,0.6c-2.6,0.1-5-0.9-6.8-2.8
			c-1.8-1.8-2.6-6.3-2.6-10.2c0-3.7,0.9-7.6,2.8-9.9c1.9-2.4,4.9-3.7,7.9-3.6c2.1,0.1,4.2,0.4,6.3,0.8V69z"/>
		<path fill="#FFFFFF" d="M104.1,42.5c-8.8,0-15.9,7.1-15.9,15.9s7.1,15.9,15.9,15.9c8.8,0,15.9-7.1,15.9-15.9
			C120.1,49.7,112.9,42.5,104.1,42.5z M115.4,52.6l-10.6,5.4c-0.2,0.1-0.5,0-0.6-0.2c0-0.1-0.1-0.1-0.1-0.2V45.8
			c0-0.3,0.2-0.5,0.5-0.5c4.5,0.2,8.7,2.7,10.9,6.6C115.7,52.2,115.6,52.5,115.4,52.6C115.4,52.6,115.4,52.6,115.4,52.6z"/>
		<path fill="#FFFFFF" d="M132.7,15.6H73.8c-5.8,0-10.5,4.7-10.5,10.5c0,0,0,0,0,0v59c0,5.8,4.7,10.5,10.5,10.5h58.9
			c5.8,0,10.5-4.7,10.5-10.5V26.2C143.2,20.4,138.5,15.6,132.7,15.6z M96.5,30.8c0-1.9,1.6-3.5,3.5-3.5l0,0h8.1
			c1.9,0,3.5,1.6,3.5,3.5v0v2.7c0,0.3-0.2,0.5-0.4,0.5c0,0-0.1,0-0.1,0c-2.2-0.6-4.5-0.9-6.8-0.9c-2.4,0-4.7,0.3-7,1
			c-0.3,0.1-0.5-0.1-0.6-0.4c0,0,0-0.1,0-0.1L96.5,30.8z M81.4,37.4l1.7-1.7c1.3-1.4,3.5-1.4,4.9,0c0,0,0,0,0,0l1.4,1.4
			c0.2,0.2,0.2,0.5,0,0.7c0,0,0,0-0.1,0.1c-1.1,0.8-2.2,1.7-3.1,2.7c-1,1-1.8,2-2.7,3.1c-0.2,0.2-0.5,0.3-0.7,0.1c0,0,0,0,0,0
			l-1.4-1.4C80.1,40.9,80.1,38.7,81.4,37.4C81.4,37.4,81.4,37.4,81.4,37.4z M104.1,81.1c-12.5,0-22.6-10.1-22.6-22.6
			s10.1-22.6,22.6-22.6c12.5,0,22.6,10.1,22.6,22.6C126.8,70.9,116.7,81,104.1,81.1C104.2,81.1,104.2,81.1,104.1,81.1z"/>
	</g>
</g>
</svg>
