<?xml version="1.0" encoding="utf-8"?>
<!-- Generator: Adobe Illustrator 21.1.0, SVG Export Plug-In . SVG Version: 6.00 Build 0)  -->
<svg version="1.1" id="Layer_1" xmlns="http://www.w3.org/2000/svg" xmlns:xlink="http://www.w3.org/1999/xlink" x="0px" y="0px"
	 viewBox="0 0 657.7 319" enable-background="new 0 0 657.7 319" xml:space="preserve">
<g>
	<g>
		<path opacity="0.7" fill="#FFFFFF" d="M328.4,206.3c22.3,0,40.4-18.1,40.4-40.4V94.9c0-10.1,8.2-18.2,18.2-18.2
			c10.1,0,18.2,8.2,18.2,18.2v70.5c0,42.4-34.3,76.8-76.7,77c-0.1,0-0.1,0-0.2,0c-9.9,0-18-8.1-18-18
			C310.4,214.4,318.5,206.3,328.4,206.3z"/>
		<path fill="#FFFFFF" d="M328.4,206.3c-22.3,0-40.4-18.1-40.4-40.4V94.9c0-10.1-8.2-18.2-18.2-18.2s-18.2,8.2-18.2,18.2v70.5
			c0,42.4,34.3,76.8,76.7,77c0.1,0,0.1,0,0.2,0c9.9,0,18-8.1,18-18C346.5,214.4,338.4,206.3,328.4,206.3z"/>
		<ellipse fill="#FFFFFF" cx="387.1" cy="94.9" rx="18.2" ry="18.2"/>
	</g>
	<g>
		<path opacity="0.7" fill="#FFFFFF" d="M426.6,107.6c-7.1-7.1-7.1-18.7,0-25.8c7.1-7.1,18.7-7.1,25.8,0l131.1,129.5
			c7.1,7.1,7.1,18.7,0,25.8c-7.1,7.1-18.7,7.1-25.8,0L426.6,107.6z"/>
		<path fill="#FFFFFF" d="M583.5,107.6c7.1-7.1,7.1-18.7,0-25.8c-7.1-7.1-18.7-7.1-25.8,0L426.6,211.4c-7.1,7.1-7.1,18.7,0,25.8
			c7.1,7.1,18.7,7.1,25.8,0L583.5,107.6z"/>
		<ellipse fill="#FFFFFF" cx="570.6" cy="224.3" rx="18.2" ry="18.2"/>
	</g>
	<g>
		<path opacity="0.7" fill="#FFFFFF" d="M139.4,172.9c7.1,7.1,18.7,7.1,25.8,0c7.1-7.1,7.1-18.7,0-25.8l-65-64.9
			c-7.1-7.1-18.7-7.1-25.8,0c-7.1,7.1-7.1,18.7,0,25.8L139.4,172.9z"/>
		<path opacity="0.7" fill="#FFFFFF" d="M235.5,223.9c0,10.1-8.2,18.2-18.2,18.2s-18.2-8.2-18.2-18.2V95.1
			c0-10.1,8.2-18.2,18.2-18.2s18.2,8.2,18.2,18.2V223.9z"/>
		<path fill="#FFFFFF" d="M230.2,82.2c-7.1-7.1-18.7-7.1-25.8,0l-65,64.9c-7.1,7.1-7.1,18.7,0,25.8c7.1,7.1,18.7,7.1,25.8,0l65-64.9
			C237.3,100.9,237.3,89.4,230.2,82.2z"/>
		<path fill="#FFFFFF" d="M87.1,76.9c-10.1,0-18.2,8.2-18.2,18.2v128.7c0,10.1,8.2,18.2,18.2,18.2s18.2-8.2,18.2-18.2V95.1
			C105.3,85.1,97.2,76.9,87.1,76.9z"/>
		<ellipse fill="#FFFFFF" cx="217.3" cy="223.9" rx="18.2" ry="18.2"/>
	</g>
</g>
</svg>
