<?xml version="1.0" encoding="utf-8"?>
<!-- Generator: Adobe Illustrator 21.1.0, SVG Export Plug-In . SVG Version: 6.00 Build 0)  -->
<svg version="1.1" id="Layer_1" xmlns="http://www.w3.org/2000/svg" xmlns:xlink="http://www.w3.org/1999/xlink" x="0px" y="0px"
	 viewBox="0 0 120.3 33.7" style="enable-background:new 0 0 120.3 33.7;" xml:space="preserve">
<style type="text/css">
	.st0{fill:#FFFFFF;}
</style>
<rect x="118.6" y="12.4" class="st0" width="1.6" height="11.7"/>
<path class="st0" d="M90.4,12.8c-0.3-0.2-0.7-0.3-1.1-0.5c-0.4-0.1-1-0.2-1.5-0.2c-0.9,0-1.6,0.1-2.3,0.5c-0.6,0.3-1.2,0.7-1.7,1.3
	c-0.5,0.6-0.8,1.2-1,2c-0.2,0.8-0.4,1.6-0.4,2.6c0,1,0.1,1.8,0.4,2.6c0.3,0.7,0.7,1.4,1.2,2c0.5,0.6,1.2,1,1.9,1.3
	c0.8,0.3,1.6,0.4,2.6,0.4c0.9,0,1.8-0.1,2.6-0.2c0.8-0.1,1.5-0.3,2.1-0.5V7.6h-2.8V12.8z M90.4,22.2c-0.2,0-0.5,0.1-0.8,0.1
	s-0.7,0.1-1.1,0.1c-1,0-1.8-0.3-2.4-1c-0.6-0.7-0.9-1.7-0.9-2.9c0-1.2,0.2-2.1,0.7-2.8c0.5-0.7,1.2-1,2.2-1c0.4,0,0.9,0.1,1.3,0.2
	c0.4,0.1,0.7,0.3,1,0.5V22.2z"/>
<rect x="77.1" y="12.4" class="st0" width="2.8" height="12"/>
<path class="st0" d="M115.5,13.2c-0.9-0.6-2.1-0.9-3.8-0.9c-0.5,0-1,0-1.6,0.1c-0.6,0-1.1,0.1-1.5,0.2v11.5h1.6v-4.3h1.3
	c0.8,0,1.6-0.1,2.2-0.2c0.7-0.1,1.2-0.4,1.7-0.7c0.5-0.3,0.8-0.7,1-1.2c0.2-0.5,0.4-1.1,0.4-1.7C116.9,14.8,116.4,13.8,115.5,13.2z
	 M114.9,17.2c-0.2,0.3-0.4,0.5-0.7,0.7c-0.3,0.2-0.7,0.3-1.1,0.4c-0.5,0.1-1,0.1-1.5,0.1h-1.2v-4.6c0.4,0,0.9-0.1,1.6-0.1
	c0.4,0,0.8,0,1.2,0.1c0.4,0.1,0.7,0.2,1,0.4c0.3,0.2,0.5,0.4,0.7,0.7c0.2,0.3,0.3,0.7,0.3,1.1C115.1,16.5,115.1,16.9,114.9,17.2z"/>
<path class="st0" d="M78.5,7.2c-0.5,0-0.9,0.2-1.2,0.5c-0.3,0.3-0.5,0.7-0.5,1.3c0,0.5,0.2,0.9,0.5,1.2c0.3,0.3,0.7,0.5,1.2,0.5
	c0.5,0,0.9-0.2,1.2-0.5c0.3-0.3,0.5-0.7,0.5-1.2h0c0-0.5-0.2-1-0.5-1.3C79.4,7.3,79,7.2,78.5,7.2z"/>
<path class="st0" d="M73.8,13.9c-0.5-0.5-1.2-1-1.9-1.3c-0.8-0.3-1.6-0.4-2.5-0.4c-0.9,0-1.8,0.1-2.6,0.2c-0.8,0.1-1.5,0.3-2.1,0.4
	v15.9h2.8V24c0.4,0.2,0.8,0.3,1.2,0.5c0.5,0.1,1,0.2,1.6,0.2c0.8,0,1.6-0.2,2.3-0.5c0.7-0.3,1.2-0.7,1.7-1.3c0.4-0.6,0.8-1.2,1-2
	c0.2-0.8,0.4-1.6,0.4-2.5h0c0-1-0.1-1.8-0.4-2.6C74.7,15.1,74.3,14.4,73.8,13.9z M71.9,21.3c-0.5,0.7-1.2,1-2.2,1
	c-0.5,0-0.9-0.1-1.3-0.2c-0.4-0.1-0.7-0.3-1-0.5v-6.9c0.3-0.1,0.6-0.1,0.8-0.2c0.3,0,0.6,0,0.8,0c1.2,0,2.1,0.3,2.7,1
	c0.6,0.7,0.8,1.7,0.8,2.9C72.6,19.7,72.4,20.6,71.9,21.3z"/>
<path class="st0" d="M104.7,17.7c-0.4-0.9-0.8-1.9-1.1-2.7c-0.4-0.9-0.8-1.7-1.2-2.6h-1.5c-0.4,0.8-0.8,1.7-1.2,2.6
	c-0.4,0.9-0.7,1.8-1.1,2.7c-0.4,0.9-0.8,1.9-1.2,3c-0.4,1.1-0.8,2.2-1.3,3.4h1.7l1.1-3h5.3c0.2,0.5,0.4,1,0.5,1.5
	c0.2,0.5,0.4,1,0.5,1.5h1.8c-0.4-1.1-0.8-2.3-1.3-3.4C105.5,19.6,105.1,18.6,104.7,17.7z M103.8,19.8h-4.4c0.3-1,0.7-1.9,1.1-2.8
	c0.3-0.9,0.7-1.8,1.1-2.6c0.4,0.9,0.8,1.8,1.1,2.6C103.1,17.8,103.5,18.8,103.8,19.8L103.8,19.8z"/>
<path class="st0" d="M48.7,19.2c-0.4-0.5-0.7-0.9-1-1.3c2.1-0.8,3.2-2.2,3.2-4.4c0-1.7-0.6-3-1.8-3.9c-1.2-0.8-3-1.3-5.3-1.3
	c-0.7,0-1.4,0-2.1,0.1c-0.8,0-1.5,0.2-2.3,0.3v15.7h2.9v-6h1.8c0.2,0,0.4,0,0.6,0c0.7,0.9,1.3,1.8,2,2.8c0.4,0.5,0.7,1.1,1,1.6
	c0.3,0.5,0.6,1.1,0.9,1.7h3.2c-0.3-0.6-0.6-1.2-0.9-1.8C50.2,21.4,49.5,20.3,48.7,19.2z M47.5,14.7c-0.2,0.3-0.5,0.6-0.8,0.8
	c-0.4,0.2-0.8,0.3-1.3,0.4c-0.5,0.1-1.2,0.1-1.9,0.1h-1.3v-5.2c0.5,0,1.1-0.1,1.7-0.1c0.5,0,1,0,1.6,0.1c0.4,0.1,0.8,0.2,1.2,0.4
	c0.3,0.2,0.6,0.5,0.8,0.8c0.2,0.3,0.3,0.8,0.3,1.2C47.8,14,47.7,14.4,47.5,14.7z"/>
<path class="st0" d="M61,13.4c-0.4-0.4-0.9-0.7-1.5-1c-0.6-0.2-1.4-0.3-2.3-0.3v0c-0.7,0-1.4,0.1-2.2,0.2c-0.7,0.1-1.2,0.2-1.5,0.4
	l0.3,2.3c0.3-0.1,0.8-0.2,1.3-0.3c0.5-0.1,1.1-0.1,1.8-0.1c0.5,0,0.9,0.1,1.2,0.2c0.3,0.1,0.6,0.3,0.8,0.5c0.2,0.2,0.3,0.5,0.4,0.8
	c0.1,0.3,0.1,0.6,0.1,0.9v0.5c-0.4-0.1-0.7-0.2-1.1-0.2c-1-0.1-1.9-0.1-2.9,0.1c-0.6,0.1-1.1,0.3-1.6,0.6c-0.5,0.3-0.8,0.7-1.1,1.2
	c-0.3,0.5-0.4,1.1-0.4,1.8c0,0.7,0.1,1.3,0.4,1.8c0.2,0.5,0.6,0.9,1,1.2c0.4,0.3,0.9,0.5,1.5,0.7c0.6,0.1,1.3,0.2,2,0.2
	c1,0,2-0.1,2.9-0.2c0.7-0.1,1.3-0.2,1.9-0.3v-7.3c0-0.7-0.1-1.4-0.2-1.9C61.7,14.3,61.4,13.8,61,13.4z M59.4,22.4
	c-0.4,0.1-1.1,0.1-2,0.1v0c-0.7,0-1.3-0.1-1.7-0.4c-0.4-0.3-0.6-0.7-0.6-1.4c0-0.3,0.1-0.6,0.2-0.8c0.2-0.2,0.4-0.4,0.6-0.5
	c0.3-0.1,0.5-0.2,0.8-0.3c0.3,0,0.6-0.1,0.9-0.1c0.6,0,1.1,0.1,1.6,0.2V22.4z"/>
<g>
	<path class="st0" d="M28.8,4.9C25.6,1.8,21.3,0,16.9,0C12.4,0,8.1,1.8,4.9,4.9C1.8,8.1,0,12.4,0,16.9c0,4.5,1.8,8.7,4.9,11.9
		c3.2,3.2,7.4,5,11.9,4.9c4.5,0,8.7-1.8,11.9-4.9c3.2-3.2,5-7.4,4.9-11.9C33.7,12.4,32,8.1,28.8,4.9z M16.4,24.4l-3.1,2.8L12.5,28
		c-0.4,0.5-1.1,0.5-1.6,0.1c-0.5-0.4-0.5-1.1-0.1-1.6c0,0,0,0,0.1-0.1l0.7-0.8l2-2.6c0.1-0.1,0.1-0.3,0.1-0.5c0-0.3-0.3-0.6-0.7-0.6
		c-0.2,0-0.4,0.1-0.5,0.2l-1.1,1.2l-1.2,1.2c-0.2,0.2-0.6,0.4-1,0.4L6,24.8l-1.1-0.1c-0.6,0-1.1-0.5-1.1-1.1c0-0.6,0.5-1.1,1-1.1
		l1.1-0.1l2.5-0.3c0.7-0.1,1.1-0.7,1.1-1.4L9.4,13c-0.1-4.1,3.2-7.5,7.3-7.5s7.5,3.2,7.5,7.3l0.1,7.7c0,0.7,0.5,1.2,1.2,1.3L28,22
		l1.1,0c0.6,0,1.1,0.4,1.2,1c0,0.6-0.4,1.1-1,1.2c0,0-0.1,0-0.1,0L28,24.3l-3.3,0.3c-0.4,0-0.7-0.1-1-0.4l-1.2-1.2L21.3,22
		c-0.1-0.1-0.3-0.2-0.5-0.2c-0.3,0-0.6,0.3-0.6,0.6c0,0.2,0,0.3,0.1,0.4l2.1,2.5l0.7,0.8c0.5,0.4,0.5,1.1,0.1,1.6
		c-0.4,0.5-1.1,0.5-1.6,0.1c0,0,0,0,0,0l-0.9-0.7l-3.2-2.7l-0.2-0.1c-0.3-0.2-0.7-0.2-0.9,0L16.4,24.4z"/>
	<path class="st0" d="M15,13.8c-0.5-0.3-0.9-0.5-1.4-0.9c0.5-0.3,1-0.6,1.4-0.9c0.5-0.3,0.6-0.7,0.3-1.1c-0.2-0.4-0.7-0.4-1.1-0.1
		c-0.8,0.5-1.5,1-2.3,1.5c-0.6,0.4-0.6,1,0,1.4c0.8,0.5,1.5,0.9,2.3,1.4c0.5,0.3,0.9,0.2,1.1-0.2C15.5,14.5,15.4,14.1,15,13.8z"/>
	<path class="st0" d="M18.2,14.9c0.2,0.3,0.6,0.5,1,0.3c0.9-0.5,1.8-1,2.7-1.6c0.4-0.3,0.5-0.9,0-1.1c-0.9-0.6-1.8-1.2-2.7-1.7
		c-0.5-0.3-1,0.1-1,0.7c0,0.3,0.2,0.5,0.4,0.6c0.5,0.3,1,0.6,1.5,1c-0.6,0.3-1.1,0.6-1.6,0.9C18.1,14.1,18,14.5,18.2,14.9z"/>
</g>
</svg>
