<?xml version="1.0" encoding="utf-8"?>
<!-- Generator: Adobe Illustrator 21.1.0, SVG Export Plug-In . SVG Version: 6.00 Build 0)  -->
<svg version="1.1" id="Layer_1" xmlns="http://www.w3.org/2000/svg" xmlns:xlink="http://www.w3.org/1999/xlink" x="0px" y="0px"
	 viewBox="0 0 502 440" enable-background="new 0 0 502 440" xml:space="preserve">
<g>
	<g>
		<g>
			<path fill="#FFFFFF" d="M135.4,423.9h4.4c2.4,0,3.6,1.3,3.6,3.1c0,1.2-0.7,2.2-1.8,2.4c1.4,0.4,2.3,1.2,2.3,2.9
				c0,1.9-1.4,3.4-3.8,3.4h-4.8L135.4,423.9L135.4,423.9z M139.6,428.6c1,0,1.6-0.5,1.6-1.3s-0.5-1.3-1.4-1.3h-1.9v2.5h1.8
				C139.6,428.5,139.6,428.6,139.6,428.6z M139.9,433.5c0.8,0,1.4-0.6,1.4-1.4s-0.6-1.4-1.7-1.4h-2v2.9L139.9,433.5L139.9,433.5z"/>
			<path fill="#FFFFFF" d="M163.2,431.4l-4.1-7.4h2.8l1.7,3.2c0.5,0.8,1,2.2,1,2.2s0.5-1.3,1-2.2l1.6-3.2h2.4l-3.8,7.3v4.4h-2.4
				L163.2,431.4L163.2,431.4z"/>
			<path fill="#FFFFFF" d="M220.1,423.9h2.4v11.7h-2.4V423.9z"/>
			<path fill="#FFFFFF" d="M246.9,430.2c-0.6-0.6-1.4-1.6-1.4-1.6s0.1,1.3,0.1,2.2v4.9h-2.3v-11.9h0.2l6,5.6
				c0.6,0.5,1.4,1.6,1.4,1.6s-0.1-1.3-0.1-2.2v-4.9h2.3v11.9h-0.2L246.9,430.2z"/>
			<path fill="#FFFFFF" d="M274,423.9h3.6c3.6,0,6.2,2.4,6.2,5.9s-2.5,5.9-6.2,5.9H274V423.9z M277.5,433.5c2.6,0,3.8-1.6,3.8-3.7
				c0-2.2-1.2-3.7-3.8-3.7h-1.1v7.6L277.5,433.5L277.5,433.5z"/>
			<path fill="#FFFFFF" d="M304.2,423.9h7.8v2.2h-5.4v2.8h4.7v2h-4.7v2.8h5.6v2.2h-8V423.9z"/>
			<path fill="#FFFFFF" d="M332.8,423.9h7.8v2.2h-5.4v2.8h4.7v2h-4.7v2.8h5.6v2.2h-8V423.9z"/>
			<path fill="#FFFFFF" d="M361.5,423.9h3.6c3.6,0,6.2,2.4,6.2,5.9s-2.5,5.9-6.2,5.9h-3.6V423.9z M365.1,433.5
				c2.6,0,3.8-1.6,3.8-3.7c0-2.2-1.2-3.7-3.8-3.7H364v7.6L365.1,433.5L365.1,433.5z"/>
		</g>
		<g>
			<g>
				<path fill="#FFFFFF" d="M195.4,352.7h30.9c0.4,0,0.6,0.2,0.6,0.6v7.3c0,0.4-0.2,0.6-0.6,0.6h-11.9h-9.6c-0.1,0-0.2,0.1-0.2,0.2
					v10.2c0,0.1,0.1,0.2,0.2,0.2h18c0.4,0,0.6,0.2,0.6,0.6v7.1c0,0.4-0.2,0.6-0.6,0.6h-18c-0.1,0-0.2,0.1-0.2,0.2v10.3
					c0,0.1,0.1,0.2,0.2,0.2h21.5c0.4,0,0.6,0.2,0.6,0.6v7.3c0,0.4-0.2,0.6-0.6,0.6h-30.9c-0.4,0-0.6-0.2-0.6-0.6v-45.8
					C194.8,353,195.1,352.7,195.4,352.7z"/>
				<path fill="#FFFFFF" d="M389.9,397.3v-1v-1.9v-3.8v-7.6v-15.2v-7.6v-3.8v-1.9v-1v-0.2c0-0.1-0.1-0.2-0.1-0.4
					c-0.1-0.1-0.2-0.1-0.4-0.1h-0.2h-3.8h-1.9h-1c-0.2,0-0.2,0-0.5,0c-0.1,0-0.2,0.1-0.2,0.2c-0.1,0.1,0,0.2,0,0.4v7.6v15.2v3.8
					c0,0.4-0.1,0.5-0.2,0.5c-0.2,0-0.4-0.1-0.6-0.4l-1.3-1.3c-1.8-1.8-3.5-3.7-5.2-5.6s-3.6-3.6-5.4-5.4s-3.7-3.5-5.5-5.3l-5.6-5.2
					l-2.8-2.6l-1.3-1.3c-0.2-0.2-0.7-0.5-1.1-0.4c-0.4,0-0.7,0.4-1,0.7c-0.1,0.1-0.1,0.4-0.1,0.6v0.5v1v1.9v3.8v7.6v15.2v7.6v3.8
					v1.9v1v0.5c0,0.4,0.2,0.6,0.6,0.6h3.8h1.9h1h0.5c0.1,0,0.1,0,0.4,0c0.1,0,0.2-0.1,0.4-0.2c0.1-0.4,0-0.5,0.1-0.6v-0.5v-1v-1.9
					v-3.8v-15.2v-3.8c0-1.3,1.2,0.5,2,1.2c1.8,1.8,3.5,3.7,5.3,5.5c1.8,1.8,3.6,3.6,5.4,5.4s3.7,3.5,5.5,5.2l5.6,5.2l2.8,2.6
					c0.5,0.5,0.8,0.8,1.4,1.3c0.7,0.5,1.8,0.1,2-0.7C390,397.9,389.9,397.6,389.9,397.3z"/>
				<path fill="#FFFFFF" d="M114.6,390.1l6.8-4c0.2-0.1,0.6-0.1,0.8,0.2c2,3.1,4.7,5.4,9.2,5.4c4,0,6.6-2,6.6-4.8
					c0-3.4-3.8-4.3-9.5-6.7c-6.1-2.6-11.6-7.4-11.6-15.3c0-7.3,5.5-12.8,14.1-12.8c6,0,10.3,1.9,13.7,7.6c0.1,0.2,0.1,0.7-0.2,0.8
					l-6.7,3.8c-0.2,0.1-0.6,0-0.8-0.2c-1.6-2.6-4-3.6-5.9-3.6c-2.9,0-4.7,1.8-4.7,4.2c0,3.1,4.4,4.6,7.9,6.1
					c8.2,3.7,13.3,7.9,13.3,15.9c0,8.8-6.8,13.4-16.1,13.4c-8.8,0-14.4-4.1-17.4-9.4C114.3,390.6,114.4,390.3,114.6,390.1z"/>
				<path fill="#FFFFFF" d="M275.2,352.7h31.2c0.4,0,0.6,0.2,0.6,0.6v7.3c0,0.4-0.2,0.6-0.6,0.6h-12.1h-9.6c-0.1,0-0.2,0.1-0.2,0.2
					v10.2c0,0.1,0.1,0.2,0.2,0.2h18c0.4,0,0.6,0.2,0.6,0.6v7.1c0,0.4-0.2,0.6-0.6,0.6h-18c-0.1,0-0.2,0.1-0.2,0.2v10.3
					c0,0.1,0.1,0.2,0.2,0.2h21.5c0.4,0,0.6,0.2,0.6,0.6v7.3c0,0.4-0.2,0.6-0.6,0.6h-30.9c-0.4,0-0.6-0.2-0.6-0.6v-45.8
					C274.6,353,274.8,352.7,275.2,352.7z"/>
			</g>
		</g>
	</g>
	<path fill="#FFFFFF" d="M227.5,295.1l159-91.8c3.2-1.9,7.1,1.3,5.9,4.8l0,0c-0.4,1-1,1.7-1.8,2.2l-159,91.8
		c-0.8,0.5-1.8,0.6-2.8,0.5l0,0C225.1,301.8,224.2,296.9,227.5,295.1z M205.2,296.7c-3.2-1.2-3.7-5.6-0.7-7.3
		c10.3-6,28.9-16.7,39.9-23c9.1-5.3,18.5-10.1,27.7-15c4.6-2.5,9.1-5,13.7-7.7c4.6-2.6,9.1-5.2,13.7-7.8c4.6-2.6,9-5.3,13.5-8
		c4.6-2.6,9-5.4,13.3-8.4c8.8-5.9,17.9-10.9,27-16.2l13.5-7.9l13.7-7.8c3.4-1.9,8.5-4.9,12.7-7.3c3-1.7,6.6,0.8,6,4.3v0.2
		c-0.2,1.2-1,2.2-1.9,2.8L208.6,296.5C207.6,297.1,206.4,297.2,205.2,296.7L205.2,296.7z M185.6,288.7c-2.9-1.4-3-5.5-0.2-7.1
		c5.2-3,12.3-7.2,17-9.8l14.7-8.4c4.9-2.8,9.8-5.6,15-8.2c2.5-1.3,5-2.5,7.6-3.8c2.5-1.3,4.9-2.8,7.4-4.1l14.7-8.4l14.7-8.4
		c4.9-2.8,9.8-5.6,14.7-8.5c9.8-5.6,19.5-11.4,29.4-17.1c2.4-1.4,4.9-2.9,7.3-4.4l7.1-4.8c2.4-1.6,4.8-3,7.2-4.4l7.3-4.3
		c9.8-5.8,19.5-11.5,29.4-17.1c4.6-2.6,11.9-6.8,17.1-9.7c2.8-1.6,6.2,0.5,6.1,3.7v0.2c-0.1,1.3-0.8,2.6-2,3.4
		c-4.7,2.8-16.7,9.8-23.4,13.7l-13.7,7.9l-13.7,7.8c-9.1,5.2-18.1,10.6-27.6,15.2c-4.7,2.4-9.4,4.8-13.9,7.4
		c-4.6,2.5-9.1,5.2-13.7,7.8c-4.6,2.6-9,5.3-13.5,7.9c-4.6,2.6-9,5.3-13.5,8c-8.9,5.5-17.7,11.2-26.9,16.4
		c-15,8.8-43.2,24.9-50.7,29.3c-1.2,0.7-2.6,0.7-3.8,0.1L185.6,288.7z M168.9,279.1c-2.4-1.7-2.3-5.4,0.2-6.8
		c5.8-3.4,14.7-8.6,20.1-11.7c5.2-2.9,10.4-5.9,15.6-8.8c5.3-2.9,10.8-5.2,15.9-8.2c20.7-11.9,41.6-23.6,62.2-35.6l30.9-18.1
		l7.8-4.6c2.6-1.4,5.2-3.1,7.6-4.8c2.5-1.7,4.9-3.5,7.4-5c2.5-1.6,5.2-3,7.7-4.6c14.4-8.5,40-23.1,51.2-29.6
		c2.6-1.4,5.9,0.2,6.1,3.2v0.1c0.1,1.6-0.6,3-2,3.8c-5,3-17.9,10.6-25.1,14.6c-9.8,5.8-19.7,11.3-29.5,16.9l-7.4,4.2
		c-2.4,1.4-4.9,2.8-7.4,4.1l-7.7,3.7c-2.5,1.3-5,2.8-7.4,4.1c-9.8,5.6-19.7,11.2-29.5,16.8c-4.9,2.8-9.8,5.6-14.7,8.5l-14.6,8.5
		l-14.6,8.6c-2.4,1.4-4.9,2.9-7.3,4.3c-2.4,1.6-4.8,3.1-7.2,4.6c-4.7,3.1-9.6,6-14.5,8.9l-14.6,8.6c-7.2,4.1-20,11.4-25.1,14.4
		c-1.3,0.7-3,0.7-4.3-0.2L168.9,279.1z M154.6,268.2c-2-1.8-1.8-5.2,0.6-6.6l6.5-3.8l8-4.7l8.2-4.6l8.2-4.6c2.6-1.6,5.4-3,8.3-4.3
		c2.8-1.3,5.6-2.6,8.4-4.2c2.8-1.4,5.4-3,8.2-4.6c10.8-6.1,21.5-12.3,32.1-18.8c5.3-3.4,10.3-6.8,15.6-10.1c5.3-3.4,10.9-6,16.4-8.8
		c2.8-1.3,5.5-2.8,8.3-4.3l8.2-4.6l8-4.6l8-4.7l8-4.8c2.6-1.6,5.3-3.2,7.8-5.2c2.5-1.9,5-3.7,7.7-5.3l8-4.7
		c5.4-3.1,10.7-6.2,16.1-9.4c5.4-3.1,10.8-6.2,16.2-9.2c6.2-3.6,16.7-9.5,22.8-12.8c2.4-1.3,5.4,0,6,2.8v0.2
		c0.4,1.7-0.5,3.4-1.9,4.3c-9,5.3-40.2,23.4-57.2,33c-2.6,1.4-5.2,3-7.8,4.4c-2.6,1.4-5.3,2.8-8,4c-2.8,1.3-5.4,2.6-7.9,4.2
		l-7.8,4.4l-31.2,17.7c-20.7,11.9-41.4,24-62,36.1c-5.2,3-10,6.6-15.1,9.8c-5.2,3.1-10.3,6.1-15.5,9.1c-7.4,4.3-20.6,11.9-26.1,15
		c-1.6,0.8-3.4,0.6-4.7-0.5L154.6,268.2z M142,256.1c-1.8-1.9-1.3-4.9,1-6.2c6.2-3.7,17.6-10.4,24.3-14.3l8.3-4.7
		c2.8-1.6,5.8-2.8,8.6-4.1c2.9-1.3,5.8-2.8,8.5-4.3c2.8-1.6,5.5-3,8.3-4.7c5.5-3.1,11-6.4,16.4-9.6c2.8-1.7,5.5-3.2,8.2-4.9
		c2.8-1.7,5.4-3.5,8-5.2c5.3-3.5,10.7-7,16.3-10c5.6-3,11.5-5.5,17-8.6c11.2-6.2,22.2-12.5,33.1-18.9c2.8-1.7,5.5-3.2,8.2-4.9
		c2.6-1.7,5.3-3.6,7.9-5.4c2.6-1.8,5.4-3.4,8.2-5l8.3-4.8c10.9-6.4,21.9-12.8,33-19.2c6.7-3.8,18.2-10.4,24.5-14
		c2.3-1.3,5-0.1,5.9,2.3v0.2c0.6,1.8-0.1,3.7-1.8,4.7c-5.8,3.4-18.9,11.3-26.5,15.7c-5.4,3.1-10.7,6.2-16.1,9.4
		c-5.4,3.1-10.8,6.1-16.2,9.2l-8,4.6c-2.6,1.6-5.5,2.8-8.4,4c-2.9,1.2-5.6,2.6-8.3,4.2l-8.2,4.6l-8,4.6l-8,4.7l-8,4.8
		c-2.6,1.6-5.3,3.2-7.9,5c-5.2,3.5-10.2,7.1-15.8,10c-5.5,2.9-11,5.6-16.5,8.5c-10.9,6-21.7,12.1-32.4,18.5c-2.6,1.6-5.4,3.1-8,4.8
		c-2.6,1.6-5.2,3.4-7.8,5.2c-2.5,1.8-5.2,3.4-7.9,4.9l-8,4.7l-8,4.7l-8,4.7c-2.9,1.7-7.6,4.3-10.6,6c-1.7,1-3.7,0.6-4.9-0.8
		L142,256.1z M131.3,243.1c-1.4-1.9-0.8-4.7,1.2-5.9c10.9-6.4,41.8-24.3,59-34.2l33.5-19.1c2.8-1.6,5.5-3.2,8.4-4.7l8.6-4.3
		c2.9-1.4,5.6-3.1,8.4-4.7l8.4-4.7c11.2-6.4,22.3-12.8,33.2-19.4c10.4-7.6,21.8-13.7,32.9-20.1l16.7-9.7l16.7-9.6
		c7.1-4.1,19.4-11.2,25.8-14.7c2-1.2,4.8-0.4,5.8,1.9v0.1c0.8,1.9,0.1,4.1-1.7,5.2c-6,3.5-19.2,11.3-26.7,15.6
		c-10.9,6.4-22.1,12.6-33.1,18.9l-8.3,4.7c-2.8,1.6-5.5,3.1-8.4,4.6c-2.9,1.4-5.8,2.6-8.6,4.2c-2.8,1.4-5.5,3.1-8.3,4.7
		c-11,6.2-22.1,12.6-33,19.2c-5.5,3.2-10.6,7.1-15.9,10.4c-5.3,3.5-11,6.4-16.7,9.1c-2.9,1.4-5.6,2.9-8.5,4.3
		c-2.8,1.6-5.5,3.1-8.4,4.6c-5.5,3.1-11,6.2-16.5,9.5c-2.8,1.6-5.4,3.2-8.2,4.9c-2.8,1.6-5.4,3.2-8,5.2c-2.5,1.9-5.2,3.8-7.9,5.4
		l-8.2,4.9c-7.6,4.4-20.9,11.9-26.9,15.2c-1.8,1-4.1,0.5-5.3-1.2L131.3,243.1z M122.1,229.2c-1.1-1.9-0.5-4.4,1.4-5.5l9.7-5.8
		c5.5-3.2,11.2-6.5,16.7-9.7c11.2-6.5,22.2-12.8,33.3-19.2l16.8-9.6l8.4-4.8c2.8-1.6,5.6-3.1,8.5-4.6c2.9-1.4,5.8-2.8,8.6-4.3
		s5.6-3.1,8.4-4.7c5.6-3.1,11.2-6.4,16.8-9.6c5.5-3.2,11-6.5,16.5-9.7c2.8-1.7,5.5-3.2,8.3-5l8-5.3c5.4-3.5,11-6.6,16.5-10l16.7-9.7
		c11-6.5,22.2-12.9,33.3-19.3c5.5-3.2,11.2-6.4,16.7-9.6l9.8-5.5c1.9-1.1,4.4-0.5,5.5,1.4l0.1,0.1c1.1,1.9,0.5,4.4-1.4,5.5
		c-6.1,3.6-18.9,11.2-26.4,15.3l-16.7,9.6L321,119c-11.2,6.2-22.2,13.1-33.9,18.3c-11.3,6.2-22.4,12.6-33.5,19.1l-8.3,4.9
		c-2.8,1.7-5.5,3.2-8.3,5l-8,5.4c-2.6,1.8-5.5,3.4-8.3,5l-33.3,19.4c-17.3,10.2-49.2,28.5-59.7,34.5
		C125.8,231.9,123.3,231.3,122.1,229.2L122.1,229.2z M114.5,214.2c-0.8-1.9-0.1-4.1,1.7-5.2c6-3.5,19.2-11.3,26.7-15.6l16.4-9.6
		l16.5-9.5l16.5-9.5c2.8-1.6,5.5-3.2,8.4-4.6c2.9-1.4,5.8-2.6,8.6-4.1c11.2-6.1,22.2-12.3,33.1-18.8l8.2-4.9
		c2.8-1.7,5.3-3.5,7.9-5.3c5.3-3.6,10.7-6.8,16.3-10c5.5-3,11.3-5.9,16.9-8.8c5.6-2.9,11.2-6,16.5-9.4c5.4-3.4,10.7-7,15.9-10.4
		c5.3-3.5,10.8-6.6,16.3-9.8c7.6-4.4,20.9-11.9,27-15.2c1.8-1,4.1-0.5,5.3,1.2l0.1,0.2c1.4,1.9,0.8,4.7-1.2,5.9l-8.9,5.3
		c-5.5,3.2-11,6.5-16.7,9.7c-11.2,6.5-22.2,12.8-33.3,19.2l-16.7,9.6c-5.6,3.1-11,6.5-16.8,9.4l-8.6,4.3c-2.9,1.4-5.6,3-8.5,4.6
		c-5.6,3.1-11.2,6.4-16.8,9.5c-5.5,3.2-11.2,6.5-16.7,9.7c-2.8,1.7-5.5,3.2-8.3,4.9c-2.8,1.7-5.4,3.5-8,5.3
		c-2.6,1.8-5.4,3.5-8.2,5.2l-8.3,4.8l-16.7,9.7c-11,6.5-22.2,12.9-33.3,19.3c-5.5,3.2-11.2,6.5-16.7,9.6l-9,5.2
		C118.2,217.5,115.6,216.6,114.5,214.2L114.5,214.2z M113.8,98.1l159-91.8c0.8-0.5,1.8-0.6,2.8-0.5l0,0c3.7,0.7,4.6,5.6,1.3,7.6
		l-159,91.8c-3.2,1.9-7.1-1.3-5.9-4.8l0,0C112.4,99.4,113,98.5,113.8,98.1z M107.1,120.7L295.7,11.9c1.1-0.6,2.3-0.7,3.4-0.4h0.1
		c3.2,1.2,3.7,5.6,0.7,7.3c-10.3,6-28.9,16.8-39.9,23c-9,5.4-18.6,9.7-27.7,14.9c-9.1,5-18.2,10.3-27.2,15.7
		c-4.6,2.6-9,5.4-13.4,8.3c-2.2,1.4-4.4,2.9-6.6,4.3s-4.4,2.8-6.7,4.1l-27.2,15.8c-10.9,6.4-29.6,17-39.9,23c-3,1.7-6.6-0.8-6-4.3
		v-0.1C105.4,122.3,106.1,121.3,107.1,120.7z M318.7,19.7c2.9,1.4,3,5.5,0.2,7.1c-5.2,3-12.5,7.2-17,9.8l-14.7,8.4
		c-2.5,1.4-4.9,2.8-7.4,4.2c-2.5,1.3-5,2.6-7.6,3.8c-2.5,1.3-5,2.5-7.6,3.8c-2.5,1.3-4.9,2.8-7.4,4.1l-14.7,8.4l-14.7,8.4l-14.6,8.5
		l-14.6,8.6c-2.4,1.4-4.9,2.9-7.3,4.3c-2.4,1.4-4.8,3.1-7.1,4.7c-4.7,3.2-9.6,6-14.5,8.9l-14.6,8.5l-14.6,8.5l-14.9,8.8
		c-4.6,2.6-11.9,6.8-17,9.7c-2.8,1.6-6.2-0.5-6.1-3.7v-0.1c0.1-1.3,0.8-2.6,2-3.4c7.6-4.4,35.5-20.7,50.7-29.4L182.4,96
		c2.3-1.3,4.6-2.6,6.8-3.8s4.7-2.4,7-3.6c4.7-2.3,9.4-4.9,13.9-7.4c9.1-5.2,18.2-10.4,27.2-15.8c9-5.4,17.6-11.5,26.7-16.7
		c15-8.8,43.2-24.9,50.7-29.3c1.2-0.7,2.6-0.7,3.8-0.1L318.7,19.7z M335.4,29.2c2.4,1.7,2.3,5.4-0.2,6.8c-1.7,1-3.4,2-4.7,2.8
		c-5.2,3-10.3,6-15.6,8.9l-7.8,4.4c-2.6,1.4-5.2,3-7.8,4.3c-5.3,2.8-10.8,5.2-15.9,8.2c-20.7,11.9-41.6,23.6-62.2,35.7l-15.5,9
		c-5.2,3-10.3,6-15.5,9.1c-9.7,7.1-20.3,12.7-30.6,18.8l-15.5,9l-15.6,9c-5.5,3.1-14.5,8.3-20.3,11.6c-2.6,1.4-5.9-0.2-6-3.2v-0.1
		c-0.1-1.6,0.6-3,2-3.8c5-3,17.9-10.6,25.1-14.6l14.7-8.5l14.7-8.4l14.7-8.4c4.9-2.8,9.8-5.8,15-8.2c2.5-1.3,5.2-2.5,7.6-3.8
		c2.5-1.3,4.9-2.8,7.4-4.2l14.7-8.4l14.7-8.4l14.6-8.5l14.6-8.6c2.4-1.4,4.9-2.9,7.3-4.3c2.4-1.4,4.8-3.1,7.2-4.6
		c2.4-1.6,4.8-3.1,7.2-4.6c2.4-1.4,4.9-2.9,7.3-4.3l14.6-8.6c7.2-4.1,20-11.4,25.1-14.3C332.4,28.3,334,28.3,335.4,29.2L335.4,29.2z
		 M104.6,181.6c-0.4-1.7,0.5-3.4,1.9-4.3c5.4-3.2,18.6-10.9,26-15.2l15.5-9l15.6-8.9c10.4-5.9,20.6-12.1,31.5-17
		c5.3-2.9,10.4-5.9,15.6-8.9l15.6-8.9c20.7-11.9,41.4-24,62-36c5.2-2.9,10.1-6.5,15.1-9.7c2.5-1.6,5.2-3.1,7.7-4.6l7.7-4.6
		c5.2-3,10.3-6,15.5-9c2.9-1.7,7.7-4.3,10.6-6c1.6-0.8,3.4-0.6,4.7,0.5l0.2,0.2c2,1.8,1.8,5.2-0.6,6.6c-6,3.6-16.3,9.7-22.5,13.2
		c-5.4,3-10.7,6.2-16.4,8.8c-2.9,1.3-5.6,2.5-8.4,4.1l-8.2,4.6c-5.4,3-10.8,6.2-16.1,9.4c-2.6,1.6-5.3,3.2-7.9,4.9l-7.8,5.2
		c-10.4,6.7-21.2,12.8-32.5,18.1c-10.9,5.9-21.7,12-32.4,18.5c-2.6,1.6-5.2,3.5-7.8,5.2c-2.5,1.8-5.2,3.5-7.9,4.9l-15.7,9.2
		l-16.1,9.4l-16.1,9.2c-6.2,3.6-16.5,9.5-22.7,12.9C108.3,185.7,105.3,184.4,104.6,181.6L104.6,181.6z M108.6,198.4
		c-0.6-1.8,0.1-3.7,1.8-4.7c5.8-3.4,19.1-11.2,26.6-15.6l16.1-9.4l16.2-9.2l16.2-9.2c2.6-1.6,5.4-3,8.3-4.3c2.9-1.3,5.6-2.6,8.4-4.1
		c10.9-6,21.6-12.2,32.1-18.7c10.2-7.2,20.9-13.4,31.9-19.1l8.3-4.2c2.8-1.4,5.5-2.9,8.2-4.4c5.4-3,10.8-6,16.2-9.2l7.9-4.8
		c2.6-1.6,5.2-3.5,7.7-5.3c5-3.7,10.4-6.6,15.8-9.8c7.6-4.4,21-12,26.7-15.2c1.7-1,3.7-0.6,4.9,0.8l0.2,0.2c1.8,1.9,1.3,4.9-1,6.2
		c-6.1,3.7-17.6,10.4-24.3,14.3c-5.5,3.1-11,6.4-16.7,9.2c-5.6,2.9-11.4,5.6-17,8.6c-5.6,3-11,6.2-16.4,9.7
		c-5.4,3.5-10.7,7-16.1,10.3c-5.4,3.4-11,6.4-16.7,9.1c-2.9,1.4-5.8,2.8-8.5,4.3l-8.3,4.7c-11,6.2-22.1,12.6-32.9,19.2
		c-2.6,1.7-5.3,3.6-7.9,5.4c-2.6,1.8-5.4,3.4-8.2,4.9l-16.4,9.6l-16.4,9.6l-16.5,9.5c-6.7,3.8-18.2,10.4-24.5,14
		c-2.3,1.3-5,0.1-5.9-2.3L108.6,198.4z M247.1,11.7L131.4,78.5c-3.6,2-7.7-1.9-5.5-5.5l0,0c0.4-0.6,0.8-1.1,1.4-1.4L243,4.8
		c0.6-0.4,1.3-0.6,2-0.6l0,0C249.3,4.2,250.7,9.7,247.1,11.7z M204.1,17.9l-45.6,26.3c-3,1.8-6-2.4-3.2-4.7
		c13.7-11.5,29.3-20.6,46.4-26.7C204.9,11.5,207.1,16.2,204.1,17.9z M257.2,296.6l115.7-66.8c3.6-2,7.7,1.9,5.5,5.5l0,0
		c-0.4,0.6-0.8,1.1-1.4,1.4l-115.7,66.8c-0.6,0.4-1.3,0.6-2,0.6l0,0C255,304.2,253.6,298.7,257.2,296.6z M300.2,290.5l45.6-26.3
		c3-1.8,6,2.4,3.2,4.7c-13.7,11.5-29.3,20.6-46.4,26.7C299.4,296.9,297.2,292.2,300.2,290.5z"/>
</g>
</svg>
