<?xml version="1.0" encoding="utf-8"?>
<!-- Generator: Adobe Illustrator 21.1.0, SVG Export Plug-In . SVG Version: 6.00 Build 0)  -->
<svg version="1.1" id="Layer_1" xmlns="http://www.w3.org/2000/svg" xmlns:xlink="http://www.w3.org/1999/xlink" x="0px" y="0px"
	 viewBox="0 0 450 430" enable-background="new 0 0 450 430" xml:space="preserve">
<g id="Layer_1_1_">
	<g>
		<g>
			<path fill="#FFFFFF" d="M31.9,356.6c3.4,3.5,10,6.7,16.3,6.7s9.4-2.3,9.4-5.9c0-4.2-5.1-5.7-10.9-6.9c-8.2-1.8-18.1-4-18.1-14.7
				c0-7.8,6.7-14.6,18.9-14.6c8.1,0,14.3,2.9,18.7,6.7l-4.4,7.3c-2.9-3.3-8.2-5.8-14.2-5.8c-5.5,0-8.9,2-8.9,5.4
				c0,3.7,4.8,5,10.4,6.3c8.3,1.8,18.6,4.2,18.6,15.5c0,8.4-7,14.9-19.9,14.9c-8.1,0-15.6-2.6-20.5-7.4L31.9,356.6z"/>
			<path fill="#FFFFFF" d="M72.9,346.4c0-13.7,9.4-25.1,24.6-25.1c15.4,0,24.7,11.4,24.7,25.1c0,13.8-9.3,25.2-24.7,25.2
				C82.3,371.6,72.9,360.1,72.9,346.4z M111.4,346.4c0-8.4-5-15.9-13.9-15.9c-8.8,0-13.8,7.4-13.8,15.9s5,16,13.8,16
				C106.4,362.4,111.4,354.9,111.4,346.4z"/>
			<path fill="#FFFFFF" d="M162.8,340.4c0-7.4-3.8-9.9-9.6-9.9c-5.4,0-9.9,3.2-12.3,6.4v33.4h-10.4v-47.9h10.4v6.5
				c3.2-3.8,9.3-7.7,16.9-7.7c10.3,0,15.5,5.6,15.5,15.4v33.7h-10.4L162.8,340.4L162.8,340.4z"/>
			<path fill="#FFFFFF" d="M214.4,365.1c-3.6,4.1-9.1,6.4-15.5,6.4c-7.8,0-16.7-5.3-16.7-15.9c0-11,8.8-15.6,16.7-15.6
				c6.4,0,12,2.1,15.5,6.2v-7.1c0-5.6-4.6-8.9-11.2-8.9c-5.4,0-10,2-14.2,6.1l-4.3-7.2c5.6-5.3,12.5-7.7,20.1-7.7
				c10.6,0,19.9,4.5,19.9,17.4v31.8h-10.4L214.4,365.1L214.4,365.1L214.4,365.1z M214.4,352.1c-2.4-3.3-6.8-5-11.4-5
				c-5.9,0-10.2,3.4-10.2,8.6s4.4,8.5,10.2,8.5c4.6,0,9-1.7,11.4-5V352.1z"/>
			<path fill="#FFFFFF" d="M240.4,359.2v-27.7h-7.9v-9.1h7.9v-13.1h10.4v13.1h9.7v9.1h-9.7v25.1c0,3.3,1.6,5.7,4.6,5.7
				c2,0,3.9-0.8,4.7-1.7l2.5,7.8c-1.9,1.8-5,3.1-9.8,3.1C244.8,371.6,240.4,367.1,240.4,359.2z"/>
			<path fill="#FFFFFF" d="M275.8,380.6c3.3,0,5.5-1,6.8-4.2l2.4-5.5l-19.6-48.5h11.1l14,35.9l14-35.9h11.2L292.5,379
				c-3.3,8.1-9,10.7-16.5,10.8c-1.5,0-4.4-0.3-5.9-0.7l1.6-9.3C272.8,380.2,274.5,380.6,275.8,380.6z"/>
			<path fill="#FFFFFF" d="M320.5,388.6v-66.2H331v6.5c3.6-4.8,9.1-7.7,15.4-7.7c12.4,0,21.2,9.3,21.2,25.1
				c0,15.8-8.8,25.2-21.2,25.2c-6.1,0-11.5-2.7-15.4-7.8v24.9L320.5,388.6L320.5,388.6z M343.3,330.5c-4.9,0-10,2.9-12.3,6.4v19
				c2.3,3.5,7.4,6.4,12.3,6.4c8.2,0,13.5-6.6,13.5-16C356.8,337.1,351.5,330.5,343.3,330.5z"/>
			<path fill="#FFFFFF" d="M399,321.2c14.4,0,23.6,11,23.6,26.1v2.5h-37c0.8,7.2,6.3,13.2,15.3,13.2c4.7,0,10.2-1.9,13.6-5.3
				l4.8,6.8c-4.8,4.6-11.8,6.9-19.4,6.9c-14.4,0-25.1-10-25.1-25.2C374.8,332.5,384.8,321.2,399,321.2z M385.5,342.5h27
				c-0.2-5.7-4.1-12.7-13.5-12.7C390,329.8,386,336.6,385.5,342.5z"/>
		</g>
		<g>
			<path fill="#FFFFFF" d="M224.8,40.2l-98.1,56.6V210l98.1,56.6l98.1-56.6V96.8L224.8,40.2z M294.8,113v80.8l0,0l-69.9,40.5
				l-69.9-40.4l0,0v-80.8l0,0l69.9-40.4L294.8,113L294.8,113z"/>
		</g>
	</g>
</g>
<g id="Layer_2">
</g>
</svg>
