<?xml version="1.0" encoding="utf-8"?>
<!-- Generator: Adobe Illustrator 21.1.0, SVG Export Plug-In . SVG Version: 6.00 Build 0)  -->
<svg version="1.1" id="Layer_1" xmlns="http://www.w3.org/2000/svg" xmlns:xlink="http://www.w3.org/1999/xlink" x="0px" y="0px"
	 viewBox="0 0 535.9 107.8" style="enable-background:new 0 0 535.9 107.8;" xml:space="preserve">
<style type="text/css">
	.st0{fill:none;}
	.st1{fill:#FFFFFF;}
</style>
<g>
	<path class="st0" d="M486.7,46c-6.7,0-10.7,5.3-10.7,13.4c0,8.1,4.2,13.5,10.6,13.5c6.1,0,9.8-5.1,9.8-13.6
		C496.4,50.8,492.8,46,486.7,46z"/>
	<path class="st0" d="M244.3,45.9c-6.7,0-10.6,5.1-10.6,13.7c0,8.3,3.9,13.5,10.1,13.5c6.6,0,10.3-5,10.3-13.8
		C254.2,51,250.5,45.9,244.3,45.9z"/>
	<polygon class="st0" points="312.6,77.2 312.7,77.5 312.7,76.9 	"/>
	<path class="st1" d="M292.6,39.6c-1.1-0.2-1.8-0.3-2.8-0.3c-0.7,0-1.1,0-1.6,0.1c-3.7,0.1-6.9,1.9-9,4.5v-0.8
		c0-2.1-1.6-3.4-3.8-3.4c-2.4,0-3.9,1.2-3.9,3.4v32.6c0,2.2,1.6,3.5,3.9,3.5c2.2,0,3.8-1.3,3.8-3.5V57.2c0.1-2.5,1-4.8,2.6-6.9
		c1.7-2.2,3.7-3.3,6.2-3.4c1,0,1.6,0.1,2.7,0.3l0.3,0.1c0.2,0.1,0.4,0.1,0.8,0.1c1.7,0,3-1.4,3.4-3.3c0.1-0.7,0.1-1,0.1-1.3
		C295.4,41,294.4,39.8,292.6,39.6z"/>
	<path class="st1" d="M172.7,47.6l-5-1c-7-1.4-9.2-3.4-9.2-8c0-4.4,3.8-7.5,10.5-7.5c6.1,0,9.3,2.5,10.6,7c0.6,1.7,2,2.5,3.7,2.5
		c0.4,0,0.8-0.1,1.3-0.1c1.8-0.4,3.1-1.7,3.1-3.5c0-0.4-0.1-0.9-0.3-1.3c-2.2-7.1-7.9-11.8-18.4-11.8c-11.8,0-18.6,6.1-18.6,14.7
		c0,8.9,4.5,13.2,15.3,15.5l5.4,1.1c7.7,1.6,10.3,3.8,10.3,8.7c0,5.3-4.4,8.6-11.6,8.6c-7.8,0-10.8-2.8-12.4-8.9
		c-0.5-1.7-2-2.6-3.7-2.6c-0.2,0-0.4,0-0.7,0c-0.2,0-0.3,0-0.6,0.1c-1.9,0.5-3.2,1.8-3.2,3.6c0,0.3,0,0.2,0.2,1
		c2.7,9.3,7.9,14,20.8,14c11.9,0,19.4-6.4,19.4-15.9C189.5,54.4,184.6,50.2,172.7,47.6z"/>
	<path class="st1" d="M331,39.9c-0.7-0.1-1-0.2-1.4-0.2c-1.6,0-2.8,0.7-3.4,2.3l-8.4,22.2c-0.6,1.5-1.1,2.8-1.4,4
		c-0.1-0.4-0.2-0.8-0.3-1c-0.4-1.2-0.7-2.2-1-3.1l-8.5-22.2c-0.6-1.5-1.8-2.2-3.3-2.2c-0.5,0-1.1,0.1-1.6,0.2
		c-1.6,0.5-2.8,1.9-2.8,3.4c0,0.5,0.1,1,0.3,1.4l13.4,32.5l-1.8,4.4c-1.4,3.6-2.7,5.1-4.8,5.1c-0.9,0-1.8-0.3-3-0.8
		c-0.5-0.2-1-0.3-1.6-0.3c-1.4,0-2.6,0.9-3.2,2.4c-0.3,0.7-0.4,1.3-0.4,1.9c0,1.5,0.9,2.6,2.4,3.2c1.6,0.6,3.3,0.9,5.1,0.9
		c6.3,0,9.5-3,12.4-10.1l15.8-39.2c0.2-0.5,0.3-1,0.3-1.4C333.8,41.6,332.6,40.3,331,39.9z M312.6,77.2l0.1-0.3l0,0.6L312.6,77.2z"
		/>
	<path class="st1" d="M218.1,71c-0.5,0-1,0.1-1.6,0.4c-1.3,0.7-2.3,1.1-3.6,1.1c-2.1,0-3.1-1.1-3.1-3.9V47h7.8c2,0,3.3-1.4,3.3-3.4
		c0-2.1-1.2-3.5-3.3-3.5h-7.8v-7.3c0-2.2-1.6-3.5-3.8-3.5c-2.3,0-3.8,1.3-3.8,3.5v7.3h-4.4c-2,0-3.2,1.4-3.2,3.5
		c0,2.1,1.1,3.4,3.1,3.4h4.4v22.2c0,7,3.9,10.6,10.3,10.6c2.8,0,4.7-0.5,7-1.6c1.2-0.7,1.9-1.8,1.9-3.1c0-0.6-0.1-1.3-0.3-1.8
		C220.5,71.9,219.4,71,218.1,71z"/>
	<path class="st1" d="M244.1,39.1c-11.1,0-18.2,8-18.2,20.2c0,12.5,6.9,20.5,18.3,20.5c10.8,0,17.7-8.2,17.7-20.5
		C262,47.1,255.1,39.1,244.1,39.1z M243.9,73.1c-6.3,0-10.1-5.2-10.1-13.5c0-8.6,3.9-13.7,10.6-13.7c6.2,0,9.9,5.1,9.9,13.4
		C254.2,68,250.5,73.1,243.9,73.1z"/>
	<path class="st1" d="M358.3,55.7l-4.2-0.9c-5.1-1.1-6.3-2.1-6.3-4.8c0-2.5,2.5-4.2,7.2-4.2c3.6,0,6.2,1.4,6.9,4
		c0.4,1.5,1.8,2.4,3.5,2.4c0.4,0,0.7-0.1,1.2-0.1c1.7-0.5,3-1.7,3-3.3c0-0.3,0-0.5-0.2-1c-1.9-5.5-7.1-8.6-14.7-8.6
		c-8.9,0-14.7,4.3-14.7,11.1c0,6.7,3.6,9.9,12.3,11.6l3.8,0.7c5.5,1.1,7.2,2.5,7.2,5.5c0,2.9-3.1,4.9-8.1,4.9
		c-4.8,0-7.4-1.6-8.5-5.3c-0.5-1.6-1.9-2.4-3.6-2.4c-0.3,0-0.5,0-1.1,0.1c-1.7,0.4-3.1,1.7-3.1,3.3c0,0.3,0,0.2,0.2,1
		c1.9,6.6,7.4,10,16.1,10c9.5,0,15.7-4.8,15.7-12C371.1,60.6,367.7,57.6,358.3,55.7z"/>
	<path class="st1" d="M487.6,39.1c-5.1,0-8.8,1.8-11.5,5.4c0-0.1,0-0.3,0-0.4V43c0-2.1-1.6-3.3-3.7-3.3c-2.3,0-3.8,1.2-3.8,3.4v46.7
		c0,2.1,1.5,3.4,3.8,3.4c2.3,0,3.7-1.3,3.7-3.4V75.1c0-0.2,0-0.3,0-0.5c2.6,3.4,6.3,5.2,11.2,5.2c10.3,0,16.8-8.1,16.8-20.6
		C504.1,46.7,498,39.1,487.6,39.1z M486.6,72.9c-6.4,0-10.6-5.4-10.6-13.5c0-8.1,4.1-13.4,10.7-13.4c6.2,0,9.7,4.9,9.7,13.3
		C496.4,67.7,492.7,72.9,486.6,72.9z"/>
	<path class="st1" d="M535.5,73.2c-0.5-1.3-1.6-2.2-2.9-2.2c-0.5,0-1,0.1-1.6,0.4c-1.3,0.7-2.3,1.1-3.6,1.1c-2.1,0-3.1-1.1-3.1-3.9
		V47h7.8c2,0,3.3-1.4,3.3-3.4c0-2.1-1.2-3.5-3.3-3.5h-7.8v-7.3c0-2.2-1.6-3.5-3.8-3.5c-2.3,0-3.8,1.3-3.8,3.5v7.3h-4.4
		c-2,0-3.2,1.4-3.2,3.5c0,2.1,1.1,3.4,3.1,3.4h4.4v22.2c0,7,3.9,10.6,10.3,10.6c2.8,0,4.7-0.5,7-1.6c1.2-0.7,1.9-1.8,1.9-3.1
		C535.9,74.4,535.8,73.8,535.5,73.2z"/>
	<path class="st1" d="M454.3,24.5c-3,0-5.4,2.3-5.4,5.3c0,3,2.4,5.4,5.4,5.4c3,0,5.3-2.3,5.3-5.4C459.6,26.9,457.3,24.5,454.3,24.5z
		"/>
	<path class="st1" d="M408.3,65.3c-0.4-0.2-1-0.3-1.6-0.3c-1.5,0-2.7,0.8-3.2,2.3c-1.4,3.9-3.5,5.6-7.8,5.6
		c-6.4,0-10.1-4.9-10.1-13.5c0-8.4,3.7-13.6,10-13.6c4.2,0,6.2,1.7,7.6,5.5c0.6,1.4,1.7,2.1,3.1,2.1c0.6,0,1.2-0.1,1.7-0.2
		c1.6-0.6,2.6-1.7,2.6-3.3c0-0.4-0.1-0.9-0.3-1.3c-2.4-6-7-9.6-14.9-9.6c-11.1,0-17.7,8.1-17.7,20.5c0,12.3,6.7,20.3,17.8,20.3
		c8.2,0,12.7-3.6,15.2-10c0.2-0.5,0.3-1,0.3-1.5C411.1,66.8,409.9,65.7,408.3,65.3z"/>
	<path class="st1" d="M454.2,39.7c-2.3,0-3.8,1.2-3.8,3.4v32.6c0,2.2,1.5,3.5,3.8,3.5c2.3,0,3.9-1.3,3.9-3.5V43.1
		C458.1,40.9,456.6,39.7,454.2,39.7z"/>
	<path class="st1" d="M441.1,39.6c-1.1-0.2-1.8-0.3-2.8-0.3c-0.7,0-1.1,0-1.6,0.1h0c-3.7,0.1-6.9,1.9-9,4.5v-0.8
		c0-2.1-1.6-3.4-3.8-3.4c-2.4,0-3.9,1.2-3.9,3.4v32.6c0,2.2,1.6,3.5,3.9,3.5c2.2,0,3.8-1.3,3.8-3.5V57.2c0.1-2.5,1-4.8,2.6-6.9
		c1.7-2.2,3.7-3.3,6.2-3.4c1,0,1.6,0.1,2.7,0.3l0.3,0.1c0.2,0.1,0.4,0.1,0.8,0.1c1.7,0,3-1.4,3.4-3.3c0.1-0.7,0.1-1,0.1-1.3
		C443.9,41,442.9,39.8,441.1,39.6z"/>
</g>
<g>
	<path class="st1" d="M66,4.7L31.1,98.1c-1.4,3.7,0.5,7.9,4.2,9.3c3.7,1.4,7.9-0.5,9.3-4.2L79.5,9.8C80.9,6,79,1.9,75.3,0.5
		C71.6-0.9,67.4,1,66,4.7z"/>
	<path class="st1" d="M96,13.5L82.1,50.3c-1.2,3.3,0.4,6.9,3.6,8.1c3.2,1.2,6.8-0.4,8-3.7l13.9-36.8c1.2-3.3-0.4-6.9-3.6-8.1
		C100.8,8.5,97.2,10.2,96,13.5z"/>
	<path class="st1" d="M14.3,56L0.4,92.1c-1.2,3.2,0.4,6.8,3.6,8c3.2,1.2,6.8-0.4,8-3.6L26,60.3c1.2-3.2-0.4-6.8-3.6-8
		C19.1,51.1,15.5,52.8,14.3,56z"/>
	<path class="st1" d="M87.9,86.1l-16,6.7c-2.9,1.2-4.2,4.5-3,7.3c1.2,2.9,4.5,4.2,7.3,3l23.8-9.9c1.1-0.5,2-1.2,2.7-2.2
		c2.1-2.9,1.5-6.9-1.4-9L84.2,69.6c-2.5-1.8-6-1.3-7.8,1.2c-1.8,2.5-1.3,6,1.2,7.8L87.9,86.1z"/>
	<path class="st1" d="M39,17.9c2.9-1.2,4.2-4.5,3-7.3c-1.2-2.9-4.5-4.2-7.3-3l-23.8,9.9c-1.1,0.5-2,1.2-2.7,2.2
		c-2.1,2.9-1.5,6.9,1.4,9l17.1,12.5c2.5,1.8,6,1.3,7.8-1.2c1.8-2.5,1.3-6-1.2-7.8L23,24.6C23,24.6,39,17.9,39,17.9z"/>
</g>
</svg>
