<?xml version="1.0" encoding="utf-8"?>
<!-- Generator: Adobe Illustrator 21.1.0, SVG Export Plug-In . SVG Version: 6.00 Build 0)  -->
<svg version="1.1" id="Layer_1" xmlns="http://www.w3.org/2000/svg" xmlns:xlink="http://www.w3.org/1999/xlink" x="0px" y="0px"
	 viewBox="0 0 79.2 79.2" enable-background="new 0 0 79.2 79.2" xml:space="preserve">
<path fill="#FFFFFF" d="M74.6,39.6c0,19.356-15.644,35-35,35s-35-15.644-35-35s15.732-35,35-35C58.956,4.6,74.6,20.244,74.6,39.6z
	 M39.6,16.267c-12.904,0-23.333,10.429-23.333,23.333S26.696,62.933,39.6,62.933S62.933,52.504,62.933,39.6
	S52.504,16.267,39.6,16.267z"/>
<circle fill="#FFFFFF" cx="39.6" cy="39.6" r="12.02"/>
<path fill="#FFFFFF" d="M63.375,71.575c-0.844,0-1.5,0.656-1.5,1.5s0.656,1.5,1.5,1.5c0.844,0,1.5-0.656,1.5-1.5
	S64.219,71.575,63.375,71.575z M64.194,73.956c-0.057-0.1-0.069-0.238-0.069-0.318c0-0.187-0.094-0.281-0.188-0.375
	c0.188-0.094,0.281-0.187,0.281-0.375c0-0.281-0.187-0.469-0.469-0.469h-0.773v-0.01h-0.175v1.51h0.104h0.071h0.117v-0.563h0.375
	c0.187,0,0.281,0.094,0.281,0.281c0,0.094,0,0.281,0.094,0.375h0.267c-0.208,0.166-0.458,0.281-0.735,0.281
	c-0.656,0-1.219-0.469-1.219-1.219c0-0.656,0.563-1.219,1.219-1.219c0.656,0,1.219,0.562,1.219,1.219
	C64.594,73.419,64.435,73.731,64.194,73.956z M63.75,72.794c0,0.187-0.094,0.187-0.281,0.187h-0.375v-0.375h0.375
	C63.657,72.607,63.75,72.7,63.75,72.794z"/>
</svg>
