<?xml version="1.0" encoding="utf-8"?>
<!-- Generator: Adobe Illustrator 21.1.0, SVG Export Plug-In . SVG Version: 6.00 Build 0)  -->
<svg version="1.1" id="Layer_1" xmlns="http://www.w3.org/2000/svg" xmlns:xlink="http://www.w3.org/1999/xlink" x="0px" y="0px"
	 viewBox="0 0 432.1 144" enable-background="new 0 0 432.1 144" xml:space="preserve">
<title>Tidelift_Logos</title>
<g id="Artwork">
	<path fill="#FFFFFF" d="M96,93.8V50.2c0-4.4,0-4.4,4.7-4.4s4.7,0,4.7,4.4v43.5c0,4.4,0,4.4-4.7,4.4S96,98.2,96,93.8z"/>
	<path fill="#FFFFFF" d="M118.6,91.3V52.7c0-6.9,0-6.9,6.9-6.9h11.3c15.1,0,24.4,7.5,25.4,19.8c0.3,3.6,0.3,7.2,0,10.8
		c-1,12.2-10.3,21.8-25.4,21.8h-11.3C118.6,98.2,118.6,98.2,118.6,91.3z M136.6,89.4c10.3,0,15.7-5.8,16.3-13.9c0.3-3,0.3-6,0-8.9
		c-0.7-8.1-5.9-11.9-16.3-11.9h-8.7v34.7L136.6,89.4z"/>
	<path fill="#FFFFFF" d="M174.7,91.3V52.7c0-6.9,0-6.9,6.9-6.9h26.2c4.6,0,4.6,0,4.6,4.3s0,4.4-4.6,4.4H184V68h21.5
		c4.4,0,4.4,0,4.4,4.1s0,4.1-4.4,4.1H184v13.4h24c4.6,0,4.6,0,4.6,4.2c0,4.4,0,4.4-4.6,4.4h-26.4C174.7,98.2,174.7,98.2,174.7,91.3z
		"/>
	<path fill="#FFFFFF" d="M225.7,91.3v-41c0-4.5,0-4.5,4.6-4.5s4.6,0,4.6,4.4v39.3H258c4.7,0,4.7,0,4.7,4.4s0,4.3-4.7,4.3h-25.5
		C225.7,98.2,225.7,98.2,225.7,91.3z"/>
	<path fill="#FFFFFF" d="M276,93.8V50.2c0-4.4,0-4.4,4.6-4.4s4.6,0,4.6,4.4v43.5c0,4.4,0,4.4-4.6,4.4S276,98.2,276,93.8z"/>
	<path fill="#FFFFFF" d="M298.5,93.8v-41c0-6.9,0-6.9,6.9-6.9h26.2c4.5,0,4.5,0,4.5,4.4s0,4.3-4.5,4.3h-23.8v14h22.1
		c4.5,0,4.5,0,4.5,4.2s0,4.3-4.5,4.3h-22.1v16.8c0,4.4,0,4.4-4.6,4.4S298.5,98.2,298.5,93.8z"/>
	<path fill="#FFFFFF" d="M78.1,45.8H41.6c-4.8,0-4.8,0-4.8,4.4s0,4.3,4.8,4.3h13.6V70l9.3-7.3v-8.2h13.6c4.7,0,4.7,0,4.7-4.3
		S82.8,45.8,78.1,45.8z"/>
	<path fill="#FFFFFF" d="M55.2,78.9v14.8c0,4.4,0,4.4,4.7,4.4s4.6,0,4.6-4.5v-22L55.2,78.9z"/>
	<path fill="#FFFFFF" d="M354,45.8h36.5c4.8,0,4.8,0,4.8,4.4s0,4.3-4.8,4.3h-13.6V70l-9.3-7.3v-8.2H354c-4.7,0-4.7,0-4.7-4.3
		S349.3,45.8,354,45.8z"/>
	<path fill="#FFFFFF" d="M376.9,78.9v14.8c0,4.4,0,4.4-4.6,4.4s-4.6,0-4.6-4.5v-22L376.9,78.9z"/>
</g>
</svg>
