<?xml version="1.0" encoding="utf-8"?>
<!-- Generator: Adobe Illustrator 21.1.0, SVG Export Plug-In . SVG Version: 6.00 Build 0)  -->
<svg version="1.1" id="Layer_1" xmlns="http://www.w3.org/2000/svg" xmlns:xlink="http://www.w3.org/1999/xlink" x="0px" y="0px"
	 viewBox="0 0 266.1 166.1" enable-background="new 0 0 266.1 166.1" xml:space="preserve">
<path fill="#FFFFFF" d="M15.6,164.1L5.3,133.1h6.8l6.3,20.9l7.1-20.9h4l7.2,20.9l6.2-20.9h6.8l-10.3,31.1H34l-6.6-20.4l-6.6,20.4
	H15.6z"/>
<path fill="#FFFFFF" d="M52.2,164.1v-32H58v12c1.2-2.1,4-3.6,7.2-3.6c2.5,0,4.6,0.8,6.3,2.5c1.7,1.6,2.6,4,2.6,7.1v14h-5.9v-12.4
	c0-3.7-1.9-5.7-4.8-5.7c-3.2,0-5.3,2.4-5.3,5.8v12.3H52.2z"/>
<path fill="#FFFFFF" d="M77.6,137.6c-1.4-1.4-1.4-3.8,0-5.2c1.4-1.4,3.8-1.4,5.2,0c1.4,1.3,1.4,3.8,0,5.2
	C81.4,139,79,139,77.6,137.6z"/>
<rect x="77.2" y="141.2" fill="#FFFFFF" width="5.9" height="22.9"/>
<path fill="#FFFFFF" d="M104.9,162.8c-1.9,1.3-4.1,1.9-6.8,1.9c-5.3,0-8-3.1-8-9v-9.5h-3.7v-5h3.8v-8.1H96v8.1h7.6v5H96v9.1
	c0,2.7,1.1,4,3.2,4c1.1,0,2.4-0.4,3.8-1.2L104.9,162.8z"/>
<path fill="#FFFFFF" d="M129.4,154.8h-17.2c0.8,3.2,3.1,4.9,6.7,4.9c2.5,0,5.4-1,7.4-2.3l2.4,4.2c-2.9,2.1-6.2,3.2-10,3.2
	c-4,0-7.1-1.2-9.3-3.5c-2.1-2.3-3.2-5.2-3.2-8.5c0-3.5,1.1-6.4,3.3-8.6c2.2-2.3,5.1-3.4,8.6-3.4c3.3,0,6.1,1.1,8.2,3.1
	c2.1,2.1,3.2,4.8,3.2,8.4C129.7,152.9,129.6,153.8,129.4,154.8z M112.2,150.3h11.6c-0.5-3-2.7-4.8-5.7-4.8
	C115.2,145.5,113,147.4,112.2,150.3z"/>
<path fill="#FFFFFF" d="M132.3,158.2l2.1-1.4c1.6,3.4,4.4,5.4,8.1,5.4c2.1,0,3.8-0.6,5.1-1.7c1.3-1.1,2-2.6,2-4.3
	c0-2.4-1.4-4-4.1-5.3c-0.6-0.3-1.6-0.8-3.2-1.5c-1.5-0.7-2.5-1.1-3.1-1.4c-3.5-1.8-5.3-4.2-5.3-7.4c0-2.3,0.8-4.2,2.4-5.8
	c1.6-1.6,3.8-2.3,6.5-2.3c3.7,0,6.6,1.6,8.8,4.6l-1.9,1.6c-1.8-2.5-4-3.8-6.8-3.8c-3.7,0-6.3,2.2-6.3,5.6c0,2.1,1.3,3.9,3.7,5.2
	c0.5,0.3,1.7,0.8,3.4,1.6c1.7,0.8,2.9,1.3,3.5,1.6c3.3,1.8,5,4.2,5,7.2c0,2.5-0.9,4.6-2.8,6.2c-1.9,1.6-4.2,2.4-6.9,2.4
	C138.2,164.6,134.2,162.4,132.3,158.2z"/>
<path fill="#FFFFFF" d="M157.8,144.5c2.2-2.3,5-3.4,8.4-3.4c3.4,0,6.1,1.1,8.4,3.4c2.2,2.3,3.3,5,3.3,8.4c0,3.3-1.1,6.1-3.3,8.4
	c-2.2,2.3-5,3.4-8.4,3.4c-3.4,0-6.1-1.1-8.4-3.4c-2.2-2.3-3.3-5.1-3.3-8.4C154.5,149.5,155.6,146.8,157.8,144.5z M172.7,159.6
	c1.7-1.9,2.6-4.1,2.6-6.8c0-2.6-0.9-4.9-2.6-6.7c-1.7-1.8-3.9-2.7-6.6-2.7c-2.6,0-4.8,0.9-6.6,2.8c-1.7,1.8-2.6,4-2.6,6.7
	c0,2.7,0.9,4.9,2.6,6.8c1.8,1.8,4,2.7,6.6,2.7C168.8,162.4,171,161.4,172.7,159.6z"/>
<path fill="#FFFFFF" d="M182.7,162.2c-1.6-1.7-2.5-4-2.5-6.8v-13.7h2.5v13.7c0,4.3,2.6,7,6.6,7c4.2,0,6.7-2.7,6.7-7.1v-13.6h2.5
	v13.7c0,5.7-3.5,9.3-9.2,9.3C186.6,164.7,184.4,163.8,182.7,162.2z"/>
<path fill="#FFFFFF" d="M202.5,164.1v-22.5h2.4v3.6c1.2-2.8,3.4-4.2,6.5-4.2c0.9,0,1.8,0.1,2.8,0.4l-0.3,2.4
	c-0.8-0.3-1.6-0.4-2.4-0.4c-4.1,0-6.5,3.2-6.5,7.9v12.8H202.5z"/>
<path fill="#FFFFFF" d="M218.2,161.4c-2.1-2.2-3.2-5-3.2-8.5c0-3.4,1.1-6.3,3.3-8.5c2.2-2.2,5-3.3,8.5-3.3c4.4,0,8.3,2.2,10.1,5.8
	l-2.1,1.2c-1.5-2.9-4.6-4.7-8-4.7c-2.6,0-4.9,0.9-6.6,2.7c-1.7,1.8-2.6,4-2.6,6.8c0,2.7,0.8,5,2.5,6.8c1.7,1.8,3.8,2.6,6.4,2.6
	c3.4,0,6.6-1.9,8.1-4.7l2.1,1.3c-0.9,1.7-2.3,3.1-4.1,4.2c-1.9,1.1-3.9,1.6-6.1,1.6C223.1,164.6,220.3,163.5,218.2,161.4z"/>
<path fill="#FFFFFF" d="M260.7,153.9h-18.9c0.4,5,3.6,8.4,9.1,8.4c2.9,0,6.2-1.1,8.2-2.7l1.2,1.9c-2.2,1.7-5.8,3.1-9.5,3.1
	c-8.3,0-11.7-5.9-11.7-11.8c0-3.4,1-6.2,3.1-8.4c2.1-2.2,4.8-3.3,8.1-3.3c3,0,5.5,1,7.5,2.9c2,1.9,3,4.5,3,7.9
	C260.8,152.2,260.7,152.9,260.7,153.9z M241.7,151.6h16.4c0-5-3.3-8.2-7.9-8.2C245.6,143.4,242.2,146.6,241.7,151.6z"/>
<path fill="none" d="M145.3,60.1v2.3c0,6.3-5.1,11.4-11.4,11.4c-6.3,0-11.4-5.1-11.4-11.4l0-2.3v-0.4h-15.4v10h6.2l2,4.5l-4.2,3.7
	l7.7,8.2l4.4-4.4l4.8,2v5.8h11.8v-5.8l4.8-2l4.4,4.4l7.7-8.2l-4.2-3.7l2-4.5h6.2v-10h-15.4V60.1z"/>
<path fill="#FFFFFF" d="M133.9,3.5c-28.6,0-51.8,23.2-51.8,51.8c0,28.6,23.2,51.8,51.8,51.8c28.6,0,51.8-23.2,51.8-51.8
	C185.7,26.7,162.5,3.5,133.9,3.5z M160.7,69.7h-6.2l-2,4.5l4.2,3.7l-7.7,8.2l-4.4-4.4l-4.8,2v5.8H128v-5.8l-4.8-2l-4.4,4.4l-7.7-8.2
	l4.2-3.7l-2-4.5h-6.2v-10h15.4v0.4l0,2.3c0,6.3,5.1,11.4,11.4,11.4c6.3,0,11.4-5.1,11.4-11.4v-2.3v-0.4h15.4V69.7z M160.7,55.1
	h-26.8h0h-26.8v-4.9h3.5c0,0-3.3-17.2,12.5-24.8l0,21.1h3.2V21.1h7.6h0h7.6v25.4h3.2V25.4c14.4,6.9,12.3,25.5,12.5,24.8h3.5V55.1z"
	/>
<path fill="#FFFFFF" d="M145.3,60.1v-0.4h0C145.3,59.9,145.3,60,145.3,60.1z"/>
<path fill="#FFFFFF" d="M122.5,59.7L122.5,59.7l0,0.4C122.4,60,122.5,59.9,122.5,59.7z"/>
</svg>
