<?xml version="1.0" encoding="utf-8"?>
<!-- Generator: Adobe Illustrator 21.1.0, SVG Export Plug-In . SVG Version: 6.00 Build 0)  -->
<svg version="1.1" id="Layer_1" xmlns="http://www.w3.org/2000/svg" xmlns:xlink="http://www.w3.org/1999/xlink" x="0px" y="0px"
	 viewBox="0 0 90 25" style="enable-background:new 0 0 90 25;" xml:space="preserve">
<style type="text/css">
	.st0{fill:#FFFFFF;}
</style>
<path class="st0" d="M17.8,7.8V5H6.2v2.9h7.7L6,17.9v2.9h12v-2.9H9.9C9.9,17.9,17.8,7.8,17.8,7.8z M23.9,8.6c-3.3,0-5.9,2.8-5.9,6.3
	s2.7,6.2,6.2,6.2c1.9,0,3.6-0.8,4.5-1.8l-1.6-2c-0.6,0.7-1.7,1.3-2.8,1.3c-1.8,0-3-1.2-3.3-2.8h8.6c0.1-0.2,0.1-0.6,0.1-1
	C29.7,11.2,27.2,8.6,23.9,8.6z M21,13.8c0.4-1.5,1.4-2.6,2.8-2.6c1.4,0,2.4,0.8,2.8,2.6H21z M67,15.4c0,1.7-1,2.9-2.5,2.9
	c-1.5,0-2.5-1.2-2.5-2.9V9h-2.9v6.7c0,3.3,2.1,5.5,5.4,5.5S70,19,70,15.7V9H67V15.4z M78.4,8.6c-1.5,0-2.7,0.6-3.6,1.7V3.8h-2.9
	v17.1h2.9v-1.2c0.8,1,2,1.6,3.6,1.6c3.2,0,5.6-2.8,5.6-6.3C84,11.2,81.5,8.6,78.4,8.6z M77.9,18.4c-1.7,0-3.1-1.5-3.1-3.4
	s1.3-3.5,3.1-3.5c1.8,0,3.1,1.6,3.1,3.5C81.1,16.8,79.8,18.4,77.9,18.4z M36.6,8.6c-3.2,0-5.3,2.2-5.3,5.5v6.6h2.8v-6.4
	c0-1.7,1-2.9,2.4-2.9c1.5,0,2.4,1.2,2.4,2.9v6.4h2.9v-6.7C41.8,10.8,39.7,8.6,36.6,8.6z M54.1,11.3h-7.4V5h-3v15.9h3v-6.7h7.4v6.7h3
	V5h-3V11.3z"/>
</svg>
